<?xml version="1.0" encoding="UTF-8"?><svg id="Text" xmlns="http://www.w3.org/2000/svg" width="1056" height="792" viewBox="0 0 1056 792"><defs><style>.cls-1,.cls-2,.cls-3,.cls-4,.cls-5{fill:none;}.cls-6,.cls-7{font-family:IBMPlexSans, 'IBM Plex Sans';}.cls-6,.cls-8{fill:#010101;}.cls-6,.cls-8,.cls-9{font-size:14px;}.cls-6,.cls-9{isolation:isolate;}.cls-7{font-size:12px;}.cls-7,.cls-10,.cls-11,.cls-12,.cls-13{fill:#4267b1;}.cls-8{font-family:IBMPlexSans-SemiBold, 'IBM Plex Sans';font-weight:600;}.cls-14,.cls-15{fill:#f4f4f4;}.cls-16,.cls-17,.cls-18{fill:#fff;}.cls-19{fill:#2073ba;}.cls-20{letter-spacing:-.015em;}.cls-11{stroke-dasharray:0 0 9.4918 9.4918;}.cls-11,.cls-2,.cls-12,.cls-17,.cls-15,.cls-18,.cls-21,.cls-13,.cls-3,.cls-4,.cls-5{stroke-miterlimit:10;}.cls-11,.cls-12,.cls-13,.cls-3{stroke:#2073ba;}.cls-9{fill:#2a3c90;font-family:IBMPlexSans-Bold, 'IBM Plex Sans';font-weight:700;}.cls-2{stroke-dasharray:0 0 9.4358 9.4358;}.cls-2,.cls-4,.cls-5{stroke:#6e6f72;}.cls-22{letter-spacing:-.006em;}.cls-12{stroke-dasharray:0 0 9.1765 9.1765;}.cls-17{stroke:#1c75bc;}.cls-15,.cls-18{stroke:#fff;}.cls-21{fill:#eef5fb;stroke:#4267b1;}.cls-23{letter-spacing:-.014em;}.cls-5{stroke-dasharray:0 0 8.7518 8.7518;}</style></defs><rect class="cls-16" x="168.9929" y="225.321" width="462.0354" height="154.2019"/><polyline class="cls-4" points="631.0283 375.4267 631.0283 379.523 624.0466 379.523"/><line class="cls-5" x1="610.5486" y1="379.523" x2="182.8012" y2="379.523"/><polyline class="cls-4" points="175.9746 379.523 168.9929 379.523 168.9929 375.4267"/><line class="cls-2" x1="168.9929" y1="366.779" x2="168.9929" y2="233.6956"/><polyline class="cls-4" points="168.9929 229.4173 168.9929 225.321 175.9746 225.321"/><line class="cls-5" x1="189.6278" y1="225.321" x2="617.3752" y2="225.321"/><polyline class="cls-4" points="624.0466 225.321 631.0283 225.321 631.0283 229.4173"/><line class="cls-2" x1="631.0283" y1="237.974" x2="631.0283" y2="371.0573"/><rect class="cls-16" x="168.9929" y="225.321" width="462.0354" height="154.2019"/><rect class="cls-16" x="168.9929" y="225.321" width="462.0354" height="154.2019"/><rect class="cls-4" x="168.9929" y="225.321" width="462.0354" height="154.2019"/><rect class="cls-16" x="168.9929" y="225.321" width="462.0354" height="154.2019"/><polyline class="cls-4" points="631.0283 375.4267 631.0283 379.523 624.0466 379.523"/><line class="cls-5" x1="610.5486" y1="379.523" x2="182.8012" y2="379.523"/><polyline class="cls-4" points="175.9746 379.523 168.9929 379.523 168.9929 375.4267"/><line class="cls-2" x1="168.9929" y1="366.779" x2="168.9929" y2="233.6956"/><polyline class="cls-4" points="168.9929 229.4173 168.9929 225.321 175.9746 225.321"/><line class="cls-5" x1="189.6278" y1="225.321" x2="617.3752" y2="225.321"/><polyline class="cls-4" points="624.0466 225.321 631.0283 225.321 631.0283 229.4173"/><line class="cls-2" x1="631.0283" y1="237.974" x2="631.0283" y2="371.0573"/><rect class="cls-21" x="16.5837" y="105.1147" width="144" height="48"/><rect class="cls-10" x="16.5837" y="105.1147" width="48" height="48"/><path class="cls-16" d="m40.5837,121.6147c1.7259,0,3.125,1.3991,3.125,3.125s-1.3991,3.125-3.125,3.125-3.125-1.3991-3.125-3.125c.002-1.7251,1.3999-3.123,3.125-3.125m0-1.25c-2.4162,0-4.375,1.9588-4.375,4.375s1.9588,4.375,4.375,4.375,4.375-1.9588,4.375-4.375-1.9588-4.375-4.375-4.375Z"/><path class="cls-16" d="m46.8337,137.8647h-1.25v-3.125c-.002-1.725-1.4-3.123-3.125-3.125h-3.75c-1.725.002-3.123,1.4-3.125,3.125v3.125h-1.25v-3.125c.0028-2.4151,1.9599-4.3722,4.375-4.375h3.75c2.4151.0028,4.3722,1.9599,4.375,4.375v3.125Z"/><rect id="_Transparent_Rectangle_" class="cls-1" x="30.5837" y="119.1147" width="20" height="20"/><rect class="cls-21" x="336.0106" y="105.1147" width="157.3407" height="48"/><rect class="cls-10" x="336.0106" y="105.1147" width="48" height="48"/><path class="cls-16" d="m375.1106,121.7148c-.4-.4-1-.4-1.4,0l-5.7,5.7-4,.9c-.9.2-1.6,1-1.6,2v4.2h-4.6l1.6-4.8v-2.2c0-1.1.9-2,2-2h4c.6,0,1-.4,1-1s-.4-1-1-1h-4c-2.2,0-4,1.8-4,4v1.8l-1.7,5.2h-2.3v2h11v-6.2l3.7-.8c.5,0,.9-.2,1.3-.6l5.7-5.7c.4-.4.4-1.1,0-1.5Z"/><circle class="cls-16" cx="358.4106" cy="114.4148" r="1"/><rect class="cls-21" x="190.3458" y="277.8212" width="122.5465" height="48"/><rect class="cls-10" x="190.3458" y="277.8212" width="48" height="48"/><path class="cls-15" d="m223.0958,303.2212v-2.7h-2.6c-.2-.8-.5-1.6-.9-2.3l1.9-2-1.8-1.9-1.9,2c-.7-.5-1.4-.8-2.2-1v-2.8h-2.5v2.8c-.8.2-1.5.5-2.2,1l-1.9-2-1.8,1.9,1.9,2c-.4.7-.8,1.5-.9,2.3h-2.6v2.6h2.6c.2.8.5,1.6.9,2.3l-1.9,2,1.8,1.9,1.9-2c.7.5,1.4.8,2.2,1v2.8h2.5v-2.8c.8-.2,1.5-.5,2.2-1l1.9,2,1.8-1.9-1.9-2c.4-.7.8-1.5.9-2.3l2.6.1h0Zm-8.8,2.6c-2.1,0-3.8-1.8-3.8-3.9,0-2.2,1.7-3.9,3.8-3.9s3.8,1.8,3.8,3.9-1.7,3.9-3.8,3.9Z"/><rect class="cls-21" x="344.8922" y="277.8212" width="122.5465" height="48"/><rect class="cls-10" x="344.8922" y="277.8212" width="48" height="48"/><rect class="cls-21" x="499.4387" y="277.9212" width="122.5465" height="48"/><rect class="cls-10" x="499.4387" y="277.9212" width="48" height="48"/><path class="cls-18" d="m539.7365,299.1484c0-.4-.2-.8-.6-1.1l-13.7-8.7c-.4-.2-.8-.2-1.2,0l-13.7,8.7c-.3.2-.6.6-.6,1.1h0c0,.4.2.8.6,1.1l13.7,8.7c.4.2.8.2,1.2,0l13.7-8.7c.4-.2.6-.6.6-1.1h0Zm-14.8,7.3l-11.4-7.2,11.4-7.2,11.4,7.2-11.4,7.2Z"/><rect class="cls-16" x="170.141" y="414.1515" width="462.0354" height="256.001"/><polyline class="cls-4" points="632.1764 663.352 632.1764 670.1525 625.1947 670.1525"/><line class="cls-5" x1="611.6966" y1="670.1525" x2="183.9493" y2="670.1525"/><polyline class="cls-4" points="177.1227 670.1525 170.141 670.1525 170.141 663.352"/><line class="cls-2" x1="170.141" y1="648.9954" x2="170.141" y2="428.0548"/><polyline class="cls-4" points="170.141 420.952 170.141 414.1515 177.1227 414.1515"/><line class="cls-5" x1="190.7759" y1="414.1515" x2="618.5232" y2="414.1515"/><polyline class="cls-4" points="625.1947 414.1515 632.1764 414.1515 632.1764 420.952"/><line class="cls-2" x1="632.1764" y1="435.1575" x2="632.1764" y2="656.0982"/><rect class="cls-16" x="170.141" y="414.1515" width="462.0354" height="256.001"/><rect class="cls-16" x="170.141" y="414.1515" width="462.0354" height="256.001"/><rect class="cls-4" x="170.141" y="414.1515" width="462.0354" height="256.001"/><rect class="cls-16" x="170.141" y="414.1515" width="462.0354" height="256.001"/><polyline class="cls-4" points="632.1764 663.352 632.1764 670.1525 625.1947 670.1525"/><line class="cls-5" x1="611.6966" y1="670.1525" x2="183.9493" y2="670.1525"/><polyline class="cls-4" points="177.1227 670.1525 170.141 670.1525 170.141 663.352"/><line class="cls-2" x1="170.141" y1="648.9954" x2="170.141" y2="428.0548"/><polyline class="cls-4" points="170.141 420.952 170.141 414.1515 177.1227 414.1515"/><line class="cls-5" x1="190.7759" y1="414.1515" x2="618.5232" y2="414.1515"/><polyline class="cls-4" points="625.1947 414.1515 632.1764 414.1515 632.1764 420.952"/><line class="cls-2" x1="632.1764" y1="435.1575" x2="632.1764" y2="656.0982"/><rect class="cls-21" x="343.5056" y="567.3735" width="122.5465" height="48"/><rect class="cls-10" x="343.5056" y="567.3735" width="48" height="48"/><rect class="cls-21" x="190.3458" y="567.3735" width="122.5465" height="48"/><rect class="cls-10" x="190.3458" y="567.3735" width="48" height="48"/><rect class="cls-21" x="501.0729" y="564.7007" width="122.5465" height="48"/><rect class="cls-10" x="501.0729" y="564.7007" width="48" height="48"/><path class="cls-17" d="m231.7958,596.2735v6.7c0,1-7.9,1.7-17.6,1.6-9.7-.1-17.5-.9-17.5-1.9v-6.7c0,1,7.8,1.8,17.5,1.9,9.8.1,17.6-.7,17.6-1.6Z"/><path class="cls-17" d="m231.9958,580.0735c0,1-7.9,1.7-17.6,1.6-9.7-.1-17.5-.9-17.5-1.9s7.9-1.7,17.5-1.6c9.7.1,17.6.9,17.6,1.9Z"/><path class="cls-17" d="m231.8958,588.5735v6.7c0,1-7.9,1.7-17.6,1.6-9.7-.1-17.5-.9-17.5-1.9v-6.7c0,1,7.8,1.8,17.5,1.9,9.7.1,17.6-.6,17.6-1.6Z"/><path class="cls-17" d="m231.8958,580.9735v6.7c0,1-7.9,1.7-17.6,1.6-9.7-.1-17.5-.9-17.5-1.9v-6.7c0,1,7.8,1.8,17.5,1.9,9.8.1,17.6-.6,17.6-1.6Z"/><circle class="cls-14" cx="329.2212" cy="509.7611" r="1"/><circle class="cls-14" cx="329.2212" cy="501.7611" r="1"/><circle class="cls-14" cx="329.2212" cy="493.7612" r="1"/><path class="cls-14" d="m343.2212,516.7611l-2.1387-1.0127c-1.7383-.8223-2.8613-2.5967-2.8613-4.5195v-6.4678h10v6.4678c0,1.9229-1.123,3.6973-2.8613,4.5195l-2.1387,1.0127Zm-3-10v4.4678c0,1.1533.6738,2.2178,1.7168,2.7109l1.2832.6074,1.2832-.6074c1.043-.4932,1.7168-1.5576,1.7168-2.7109v-4.4678h-6Z"/><rect class="cls-21" x="341.0879" y="459.7292" width="122.5465" height="48"/><rect class="cls-10" x="341.0879" y="459.7292" width="48" height="48"/><line class="cls-13" x1="321.7972" y1="128.0648" x2="256.0972" y2="128.7648"/><polygon class="cls-10" points="328.8972 128.0648 318.8972 124.0648 321.2972 128.0648 318.9972 132.1647 328.8972 128.0648"/><line class="cls-13" x1="167.6972" y1="128.3648" x2="226.9972" y2="128.5648"/><line class="cls-3" x1="418.681" y1="189.5681" x2="418.681" y2="172.9681"/><polygon class="cls-19" points="418.681 196.5681 422.781 186.6681 418.681 189.0681 414.681 186.6681 418.681 196.5681"/><line class="cls-3" x1="409.6204" y1="432.1913" x2="409.0204" y2="373.5913"/><polygon class="cls-19" points="409.7204 439.1913 413.7204 429.1913 409.6204 431.5913 405.5204 429.2913 409.7204 439.1913"/><line class="cls-13" x1="490.182" y1="592.5782" x2="465.6351" y2="592.5782"/><polygon class="cls-10" points="494.2351 592.5782 488.5265 588.583 489.8965 592.5782 488.5265 596.5734 494.2351 592.5782"/><line class="cls-13" x1="336.2212" y1="592.5782" x2="313.1212" y2="592.5782"/><polygon class="cls-10" points="343.3212 592.5782 333.4212 588.4783 335.7212 592.5782 333.4212 596.6782 343.3212 592.5782"/><line class="cls-13" x1="409.6204" y1="546.3413" x2="409.6204" y2="518.0413"/><polygon class="cls-10" points="409.6204 553.3413 413.7204 543.4413 409.6204 545.7413 405.5204 543.4413 409.6204 553.3413"/><line class="cls-13" x1="96.265" y1="152.4291" x2="96.265" y2="158.5945"/><line class="cls-12" x1="96.265" y1="171.0625" x2="96.265" y2="592.2327"/><line class="cls-13" x1="96.265" y1="598.5352" x2="96.265" y2="604.7007"/><line class="cls-13" x1="164.285" y1="602.5084" x2="161.2584" y2="602.5084"/><line class="cls-11" x1="154.8691" y1="602.6866" x2="106.9825" y2="603.5776"/><line class="cls-13" x1="103.8215" y1="603.5776" x2="100.795" y2="603.6667"/><polygon class="cls-10" points="168.9929 602.4193 162.2673 598.8554 163.8814 602.5084 162.3345 606.1614 168.9929 602.4193"/><g id="jhn212gmqd"><path class="cls-16" d="m378.8061,478.8913v11.426l-10,5.833v-11.259h-2v11.259l-10-5.833v-11.426h-2v12c.0007.3565.1912.6857.5.864l12,7c.3114.1817.6966.1817,1.008,0l12-7c.3057-.1803.4929-.5091.492-.864v-12h-2Z"/><path class="cls-16" d="m374.9941,486.0733v-7.214h8v7.214h-8Z"/><path class="cls-16" d="m352.0171,487.0723v-8.214h8v8.214h-8Z"/><path class="cls-16" d="m363.5041,491.8913v-7.128h8v7.128h-8Z"/></g><path class="cls-16" d="m380.8061,476.8853c-.0029-.3544-.1931-.6808-.5-.858l-12-7c-.3114-.1817-.6966-.1817-1.008,0l-12,7c-.3057.1803-.4929.5091-.492.864h.014l-.014.008c.0007.3565.1912.6857.5.864l12,7c.3114.1817.6966.1817,1.008,0l12-7c.3069-.1772.4971-.5036.5-.858v-.02h-.008Zm-13,5.856l-10.023-5.85,10.023-5.842,10.022,5.842-10.022,5.85Z"/><path class="cls-14" d="m379.6411,288.7913c-2.2061,0-4,1.7944-4,4,0,.7395.2155,1.4243.5668,2.019l-2.9808,2.981h-8.5859v10h10v-8.5859l2.9808-2.9807c.5949.3513,1.2796.5667,2.0192.5667,2.2061,0,4-1.7944,4-4s-1.7939-4-4-4Zm-7,17h-6v-6h6v6Zm7-11c-1.1025,0-2-.897-2-2s.8975-2,2-2,2,.897,2,2-.8975,2-2,2Z"/><circle class="cls-14" cx="525.0729" cy="585.9009" r="2"/><path class="cls-14" d="m532.3637,585.4614c-1.3342-2.8036-4.1964-4.5605-7.2908-4.5605s-5.9567,1.7569-7.2908,4.5605l-.2092.4395.2092.4395c1.3342,2.8036,4.1964,4.5605,7.2908,4.5605s5.9567-1.7569,7.2908-4.5605l.2092-.4395-.2092-.4395Zm-7.2908,4.471c-2.2229,0-4.0315-1.8086-4.0315-4.0315s1.8086-4.0315,4.0315-4.0315,4.0315,1.8086,4.0315,4.0315-1.8086,4.0315-4.0315,4.0315Z"/><path class="cls-14" d="m374.7093,586.7907h-6.0088c-1.103,0-2,.8975-2,2v3.999c0,1.1025.897,2,2,2h6.0088c1.103,0,2-.8975,2-2v-3.999c0-1.1025-.897-2-2-2Zm0,5.999h-6.0088v-3.999h6.0088v3.999Z"/><path class="cls-14" d="m370.7093,584.778v-2h-6.0029c-1.1011,0-1.9971.8975-1.9971,2v4.9941h2l-.0029-4.9941h6.0029Z"/><text class="cls-8" transform="translate(400.0107 123.4741)"><tspan x="0" y="0">Provisioning</tspan></text><text class="cls-9" transform="translate(190.3457 51.7034)"><tspan x="0" y="0">IBM </tspan><tspan class="cls-23" x="30.1553" y="0">w</tspan><tspan class="cls-22" x="41.7334" y="0">a</tspan><tspan x="49.6152" y="0">tsonx</tspan><tspan class="cls-20" x="86.1128" y="0">.</tspan><tspan x="90.2432" y="0">d</tspan><tspan class="cls-22" x="98.7549" y="0">a</tspan><tspan x="106.6367" y="0">ta </tspan></text><text class="cls-8" transform="translate(254.3459 296.1807)"><tspan x="0" y="0">Presto </tspan><tspan x="0" y="18">Engine</tspan></text><text class="cls-8" transform="translate(408.8923 296.1807)"><tspan x="0" y="0">Catalog</tspan></text><text class="cls-8" transform="translate(563.439 296.2805)"><tspan x="0" y="0">Bucket</tspan></text><text class="cls-6" transform="translate(189.5059 244.6752)"><tspan x="0" y="0">IBM watsonx.data console</tspan></text><text class="cls-8" transform="translate(407.5059 585.7329)"><tspan x="0" y="0">Table</tspan></text><text class="cls-8" transform="translate(254.3459 585.7329)"><tspan x="0" y="0">Querying</tspan></text><text class="cls-8" transform="translate(565.0732 583.0601)"><tspan x="0" y="0">Display</tspan><tspan x="0" y="18">Result</tspan></text><text class="cls-6" transform="translate(191.1401 454.0762)"><tspan x="0" y="0">Query Workspace</tspan></text><text class="cls-8" transform="translate(405.0884 478.0889)"><tspan x="0" y="0">Schema</tspan></text><text class="cls-7" transform="translate(234.7498 133.335)"><tspan x="0" y="0">1</tspan></text><text class="cls-7" transform="translate(431.1311 189.6387)"><tspan x="0" y="0">2</tspan></text><text class="cls-7" transform="translate(251.894 556.312)"><tspan x="0" y="0">3</tspan></text><text class="cls-8" transform="translate(82.3169 131.8826)"><tspan x="0" y="0">User</tspan></text></svg>