<?xml version="1.0" encoding="UTF-8"?><svg id="Text" xmlns="http://www.w3.org/2000/svg" width="1313.1313" height="800" viewBox="0 0 1313.1313 800"><defs><style>.cls-1,.cls-2,.cls-3,.cls-4,.cls-5,.cls-6,.cls-7,.cls-8,.cls-9{fill:none;}.cls-10,.cls-2,.cls-11,.cls-12,.cls-13{isolation:isolate;}.cls-10,.cls-14{fill:#010101;}.cls-10,.cls-14,.cls-11,.cls-12{font-size:14px;}.cls-10,.cls-13{font-family:IBMPlexSans, 'IBM Plex Sans';}.cls-14,.cls-12{font-family:IBMPlexSans-SemiBold, 'IBM Plex Sans';font-weight:600;}.cls-15,.cls-16{fill:#f4f4f4;}.cls-17,.cls-18,.cls-19{fill:#fff;}.cls-20{fill:#2073ba;}.cls-21{fill:#2374bb;}.cls-22,.cls-23,.cls-24,.cls-25,.cls-26{fill:#4267b1;}.cls-27{fill:#4468b1;}.cls-28{letter-spacing:-.015em;}.cls-23,.cls-3,.cls-24,.cls-18,.cls-16,.cls-19,.cls-29,.cls-30,.cls-25,.cls-26,.cls-4,.cls-5,.cls-6,.cls-7,.cls-8,.cls-9{stroke-miterlimit:10;}.cls-23,.cls-24,.cls-25,.cls-4,.cls-8{stroke:#2073ba;}.cls-23,.cls-8{stroke-dasharray:0 0 9.4918 9.4918;}.cls-11{fill:#2a3c90;font-family:IBMPlexSans-Bold, 'IBM Plex Sans';font-weight:700;}.cls-3{stroke-dasharray:0 0 9.4358 9.4358;}.cls-3,.cls-7,.cls-9{stroke:#6e6f72;}.cls-31{letter-spacing:-.006em;}.cls-24{stroke-dasharray:0 0 9.1765 9.1765;}.cls-12,.cls-13{fill:#020202;}.cls-18{stroke:#1c75bc;}.cls-16,.cls-19{stroke:#fff;}.cls-29{stroke:#4468b1;}.cls-29,.cls-30{fill:#eef5fb;}.cls-30,.cls-26,.cls-6{stroke:#4267b1;}.cls-32{letter-spacing:-.014em;}.cls-33{letter-spacing:-.007em;}.cls-34{letter-spacing:-.008em;}.cls-5{stroke:#2374bb;}.cls-35{letter-spacing:-.005em;}.cls-36{letter-spacing:-.005em;}.cls-37{letter-spacing:-.01em;}.cls-13{font-size:12px;}.cls-9{stroke-dasharray:0 0 8.7518 8.7518;}.cls-38{letter-spacing:0em;}</style></defs><rect class="cls-17" x="819.7956" y="88.3402" width="487.9192" height="456.4821"/><polyline class="cls-7" points="1307.7148 532.6962 1307.7148 544.8223 1300.342 544.8223"/><line class="cls-9" x1="1286.0878" y1="544.8223" x2="834.3775" y2="544.8223"/><polyline class="cls-7" points="827.1685 544.8223 819.7956 544.8223 819.7956 532.6962"/><line class="cls-3" x1="819.7956" y1="507.0965" x2="819.7956" y2="113.1315"/><polyline class="cls-7" points="819.7956 100.4663 819.7956 88.3402 827.1685 88.3402"/><line class="cls-9" x1="841.5865" y1="88.3402" x2="1293.2968" y2="88.3402"/><polyline class="cls-7" points="1300.342 88.3402 1307.7148 88.3402 1307.7148 100.4663"/><line class="cls-3" x1="1307.7148" y1="125.7965" x2="1307.7148" y2="519.7616"/><rect class="cls-17" x="819.7956" y="88.3402" width="487.9192" height="456.4821"/><rect class="cls-17" x="819.7956" y="88.3402" width="487.9192" height="456.4821"/><rect class="cls-7" x="819.7956" y="88.3402" width="487.9192" height="456.4821"/><rect class="cls-17" x="819.7956" y="88.3402" width="487.9192" height="456.4821"/><polyline class="cls-7" points="1307.7148 532.6962 1307.7148 544.8223 1300.342 544.8223"/><line class="cls-9" x1="1286.0878" y1="544.8223" x2="834.3775" y2="544.8223"/><polyline class="cls-7" points="827.1685 544.8223 819.7956 544.8223 819.7956 532.6962"/><line class="cls-3" x1="819.7956" y1="507.0965" x2="819.7956" y2="113.1315"/><polyline class="cls-7" points="819.7956 100.4663 819.7956 88.3402 827.1685 88.3402"/><line class="cls-9" x1="841.5865" y1="88.3402" x2="1293.2968" y2="88.3402"/><polyline class="cls-7" points="1300.342 88.3402 1307.7148 88.3402 1307.7148 100.4663"/><line class="cls-3" x1="1307.7148" y1="125.7965" x2="1307.7148" y2="519.7616"/><rect class="cls-17" x="845.6651" y="232.9484" width="462.0354" height="154.2019"/><polyline class="cls-7" points="1307.7005 383.0541 1307.7005 387.1504 1300.7188 387.1504"/><line class="cls-9" x1="1287.2207" y1="387.1504" x2="859.4734" y2="387.1504"/><polyline class="cls-7" points="852.6468 387.1504 845.6651 387.1504 845.6651 383.0541"/><line class="cls-3" x1="845.6651" y1="374.4064" x2="845.6651" y2="241.3231"/><polyline class="cls-7" points="845.6651 237.0447 845.6651 232.9484 852.6468 232.9484"/><line class="cls-9" x1="866.3" y1="232.9484" x2="1294.0474" y2="232.9484"/><polyline class="cls-7" points="1300.7188 232.9484 1307.7005 232.9484 1307.7005 237.0447"/><line class="cls-3" x1="1307.7005" y1="245.6014" x2="1307.7005" y2="378.6848"/><rect class="cls-17" x="845.6651" y="232.9484" width="462.0354" height="154.2019"/><rect class="cls-17" x="845.6651" y="232.9484" width="462.0354" height="154.2019"/><rect class="cls-7" x="845.6651" y="232.9484" width="462.0354" height="154.2019"/><rect class="cls-17" x="845.6651" y="232.9484" width="462.0354" height="154.2019"/><polyline class="cls-7" points="1307.7005 383.0541 1307.7005 387.1504 1300.7188 387.1504"/><line class="cls-9" x1="1287.2207" y1="387.1504" x2="859.4734" y2="387.1504"/><polyline class="cls-7" points="852.6468 387.1504 845.6651 387.1504 845.6651 383.0541"/><line class="cls-3" x1="845.6651" y1="374.4064" x2="845.6651" y2="241.3231"/><polyline class="cls-7" points="845.6651 237.0447 845.6651 232.9484 852.6468 232.9484"/><line class="cls-9" x1="866.3" y1="232.9484" x2="1294.0474" y2="232.9484"/><polyline class="cls-7" points="1300.7188 232.9484 1307.7005 232.9484 1307.7005 237.0447"/><line class="cls-3" x1="1307.7005" y1="245.6014" x2="1307.7005" y2="378.6848"/><rect class="cls-30" x="52.8683" y="326.5281" width="113.9696" height="48"/><rect class="cls-22" x="52.8683" y="326.5281" width="48" height="48"/><path class="cls-17" d="m76.8683,343.0281c1.7259,0,3.125,1.3991,3.125,3.125s-1.3991,3.125-3.125,3.125-3.125-1.3991-3.125-3.125c.002-1.7251,1.3999-3.123,3.125-3.125m0-1.25c-2.4162,0-4.375,1.9588-4.375,4.375s1.9588,4.375,4.375,4.375,4.375-1.9588,4.375-4.375-1.9588-4.375-4.375-4.375Z"/><path class="cls-17" d="m83.1183,359.2781h-1.25v-3.125c-.002-1.725-1.4-3.123-3.125-3.125h-3.75c-1.725.002-3.123,1.4-3.125,3.125v3.125h-1.25v-3.125c.0028-2.4151,1.9599-4.3722,4.375-4.375h3.75c2.4151.0028,4.3722,1.9599,4.375,4.375v3.125Z"/><rect id="_Transparent_Rectangle_" class="cls-1" x="66.8683" y="340.5281" width="20" height="20"/><rect class="cls-30" x="445.4601" y="121.5696" width="172.245" height="48"/><rect class="cls-22" x="445.4601" y="121.5696" width="48" height="48"/><rect class="cls-30" x="867.0179" y="285.4486" width="122.5465" height="48"/><rect class="cls-22" x="867.0179" y="285.4486" width="48" height="48"/><path class="cls-16" d="m899.7679,310.8486v-2.7h-2.6c-.2-.8-.5-1.6-.9-2.3l1.9-2-1.8-1.9-1.9,2c-.7-.5-1.4-.8-2.2-1v-2.8h-2.5v2.8c-.8.2-1.5.5-2.2,1l-1.9-2-1.8,1.9,1.9,2c-.4.7-.8,1.5-.9,2.3h-2.6v2.6h2.6c.2.8.5,1.6.9,2.3l-1.9,2,1.8,1.9,1.9-2c.7.5,1.4.8,2.2,1v2.8h2.5v-2.8c.8-.2,1.5-.5,2.2-1l1.9,2,1.8-1.9-1.9-2c.4-.7.8-1.5.9-2.3l2.6.1h0Zm-8.8,2.6c-2.1,0-3.8-1.8-3.8-3.9,0-2.2,1.7-3.9,3.8-3.9s3.8,1.8,3.8,3.9-1.7,3.9-3.8,3.9Z"/><rect class="cls-30" x="1021.5644" y="285.4486" width="122.5465" height="48"/><rect class="cls-22" x="1021.5644" y="285.4486" width="48" height="48"/><rect class="cls-30" x="1176.1109" y="285.5486" width="122.5465" height="48"/><rect class="cls-22" x="1176.1109" y="285.5486" width="48" height="48"/><path class="cls-19" d="m1216.4087,306.7759c0-.4-.2-.8-.6-1.1l-13.7-8.7c-.4-.2-.8-.2-1.2,0l-13.7,8.7c-.3.2-.6.6-.6,1.1h0c0,.4.2.8.6,1.1l13.7,8.7c.4.2.8.2,1.2,0l13.7-8.7c.4-.2.6-.6.6-1.1h0Zm-14.8,7.3l-11.4-7.2,11.4-7.2,11.4,7.2-11.4,7.2Z"/><rect class="cls-30" x="1028.0756" y="406.5984" width="122.5465" height="48"/><rect class="cls-22" x="1028.0756" y="406.5984" width="48" height="48"/><rect class="cls-30" x="1185.1684" y="407.8031" width="122.5465" height="48"/><rect class="cls-22" x="1185.1684" y="407.8031" width="48" height="48"/><path class="cls-18" d="m1069.5256,435.4984v6.7c0,1-7.9,1.7-17.6,1.6-9.7-.1-17.5-.9-17.5-1.9v-6.7c0,1,7.8,1.8,17.5,1.9,9.8.1,17.6-.7,17.6-1.6Z"/><path class="cls-18" d="m1069.7256,419.2984c0,1-7.9,1.7-17.6,1.6-9.7-.1-17.5-.9-17.5-1.9s7.9-1.7,17.5-1.6c9.7.1,17.6.9,17.6,1.9Z"/><path class="cls-18" d="m1069.6256,427.7984v6.7c0,1-7.9,1.7-17.6,1.6-9.7-.1-17.5-.9-17.5-1.9v-6.7c0,1,7.8,1.8,17.5,1.9,9.7.1,17.6-.6,17.6-1.6Z"/><path class="cls-18" d="m1069.6256,420.1984v6.7c0,1-7.9,1.7-17.6,1.6-9.7-.1-17.5-.9-17.5-1.9v-6.7c0,1,7.8,1.8,17.5,1.9,9.8.1,17.6-.6,17.6-1.6Z"/><circle class="cls-15" cx="1000.9867" cy="527.0192" r="1"/><circle class="cls-15" cx="1000.9867" cy="519.0192" r="1"/><circle class="cls-15" cx="1000.9867" cy="511.0193" r="1"/><line class="cls-25" x1="1173.9511" y1="431.8031" x2="1150.8511" y2="431.8031"/><polygon class="cls-22" points="1181.0511 431.8031 1171.1511 427.7032 1173.4511 431.8031 1171.1511 435.9031 1181.0511 431.8031"/><line class="cls-25" x1="1038.8637" y1="386.1198" x2="1038.8637" y2="357.8198"/><polygon class="cls-22" points="1038.8637 393.1198 1042.9637 383.2198 1038.8637 385.5198 1034.7637 383.2198 1038.8637 393.1198"/><path class="cls-15" d="m1056.3133,296.4187c-2.2061,0-4,1.7944-4,4,0,.7395.2155,1.4243.5668,2.019l-2.9808,2.981h-8.5859v10h10v-8.5859l2.9808-2.9807c.5949.3513,1.2796.5667,2.0192.5667,2.2061,0,4-1.7944,4-4s-1.7939-4-4-4Zm-7,17h-6v-6h6v6Zm7-11c-1.1025,0-2-.897-2-2s.8975-2,2-2,2,.897,2,2-.8975,2-2,2Z"/><circle class="cls-15" cx="1209.1684" cy="429.0033" r="2"/><path class="cls-15" d="m1216.4592,428.5639c-1.3342-2.8036-4.1964-4.5605-7.2908-4.5605s-5.9567,1.7569-7.2908,4.5605l-.2092.4395.2092.4395c1.3342,2.8036,4.1964,4.5605,7.2908,4.5605s5.9567-1.7569,7.2908-4.5605l.2092-.4395-.2092-.4395Zm-7.2908,4.471c-2.2229,0-4.0315-1.8086-4.0315-4.0315s1.8086-4.0315,4.0315-4.0315,4.0315,1.8086,4.0315,4.0315-1.8086,4.0315-4.0315,4.0315Z"/><text class="cls-14" transform="translate(509.4602 139.929)"><tspan x="0" y="0">Get </tspan><tspan x="0" y="18">Promotion Code</tspan></text><text class="cls-11" transform="translate(827.1685 107.1112)"><tspan x="0" y="0">IBM </tspan><tspan class="cls-32" x="30.1553" y="0">w</tspan><tspan class="cls-31" x="41.7334" y="0">a</tspan><tspan x="49.6152" y="0">tsonx</tspan><tspan class="cls-28" x="86.1128" y="0">.</tspan><tspan x="90.2432" y="0">d</tspan><tspan class="cls-31" x="98.7549" y="0">a</tspan><tspan x="106.6367" y="0">ta </tspan></text><text class="cls-14" transform="translate(931.0183 303.8081)"><tspan x="0" y="0">Presto </tspan><tspan x="0" y="18">Engine</tspan></text><text class="cls-14" transform="translate(1085.5647 303.8081)"><tspan x="0" y="0">Catalog</tspan></text><text class="cls-14" transform="translate(1240.1113 303.908)"><tspan x="0" y="0">Bucket</tspan></text><text class="cls-10" transform="translate(866.1781 252.3027)"><tspan x="0" y="0">IBM watsonx.data console</tspan></text><text class="cls-14" transform="translate(1092.0759 424.9578)"><tspan x="0" y="0">Querying</tspan></text><text class="cls-14" transform="translate(1249.1689 426.1624)"><tspan x="0" y="0">Display</tspan><tspan x="0" y="18">Result</tspan></text><rect class="cls-30" x="872.0924" y="600.049" width="139.5278" height="48"/><rect class="cls-22" x="872.0924" y="600.049" width="48" height="48"/><circle class="cls-15" cx="896.0924" cy="621.2492" r="2"/><path class="cls-15" d="m903.3832,620.8097c-1.3342-2.8036-4.1964-4.5605-7.2908-4.5605s-5.9567,1.7569-7.2908,4.5605l-.2092.4395.2092.4395c1.3342,2.8036,4.1964,4.5605,7.2908,4.5605s5.9567-1.7569,7.2908-4.5605l.2092-.4395-.2092-.4395Zm-7.2908,4.471c-2.2229,0-4.0315-1.8086-4.0315-4.0315s1.8086-4.0315,4.0315-4.0315,4.0315,1.8086,4.0315,4.0315-1.8086,4.0315-4.0315,4.0315Z"/><text class="cls-14" transform="translate(936.093 618.408)"><tspan x="0" y="0">Monitored </tspan><tspan x="0" y="18">Usage</tspan></text><text class="cls-14" transform="translate(118.6015 353.294)"><tspan x="0" y="0">User</tspan></text><rect class="cls-1" x="73.2755" y="433.6982" width="90.6" height="21.8"/><g class="cls-2"><text class="cls-13" transform="translate(74.4248 438.0984) scale(1.0752 1)"><tspan x="0" y="0">N</tspan><tspan class="cls-35" x="8.4836" y="0">e</tspan><tspan class="cls-38" x="15.0117" y="0">w </tspan></text><text class="cls-13" transform="translate(74.4248 452.4983) scale(1.0752 1)"><tspan x="0" y="0">User</tspan></text></g><rect class="cls-1" x="73.3018" y="231.7084" width="90.6" height="21.8"/><g class="cls-2"><text class="cls-13" transform="translate(73.3016 247.0841) scale(1.0752 1)"><tspan x="0" y="0">Exi</tspan><tspan class="cls-33" x="16.0799" y="0">s</tspan><tspan x="21.8401" y="0">ting</tspan></text><text class="cls-13" transform="translate(73.3016 261.484) scale(1.0752 1)"><tspan x="0" y="0">User</tspan></text></g><line class="cls-25" x1="148.2807" y1="381.5781" x2="148.2807" y2="382.3781"/><line class="cls-24" x1="148.2807" y1="384.0781" x2="148.2807" y2="442.1781"/><line class="cls-25" x1="148.2807" y1="443.0781" x2="148.2807" y2="443.8781"/><line class="cls-25" x1="189.3891" y1="232.6084" x2="187.5557" y2="232.6084"/><line class="cls-23" x1="183.6852" y1="232.7991" x2="154.6767" y2="233.7529"/><line class="cls-25" x1="152.7618" y1="233.7529" x2="150.9284" y2="233.8483"/><polygon class="cls-22" points="192.241 232.513 188.1668 228.6979 189.1446 232.6084 188.2075 236.5189 192.241 232.513"/><line class="cls-25" x1="186.9853" y1="444.5982" x2="185.1519" y2="444.5982"/><line class="cls-23" x1="181.2814" y1="444.789" x2="152.2729" y2="445.7427"/><line class="cls-25" x1="150.358" y1="445.7427" x2="148.5246" y2="445.8381"/><polygon class="cls-22" points="189.8372 444.5028 185.763 440.6877 186.7408 444.5982 185.8038 448.5087 189.8372 444.5028"/><line class="cls-25" x1="150.9284" y1="317.477" x2="150.9284" y2="316.377"/><line class="cls-24" x1="150.9284" y1="313.977" x2="150.9284" y2="234.877"/><line class="cls-25" x1="150.9284" y1="233.677" x2="150.9284" y2="232.577"/><rect class="cls-30" x="192.0509" y="203.3068" width="113.9696" height="48"/><rect class="cls-22" x="192.0509" y="203.3068" width="48" height="48"/><path class="cls-17" d="m216.0509,219.8068c1.7259,0,3.125,1.3991,3.125,3.125s-1.3991,3.125-3.125,3.125-3.125-1.3991-3.125-3.125c.002-1.7251,1.3999-3.123,3.125-3.125m0-1.25c-2.4162,0-4.375,1.9588-4.375,4.375s1.9588,4.375,4.375,4.375,4.375-1.9588,4.375-4.375-1.9588-4.375-4.375-4.375Z"/><path class="cls-17" d="m222.3009,236.0568h-1.25v-3.125c-.002-1.725-1.4-3.123-3.125-3.125h-3.75c-1.725.002-3.123,1.4-3.125,3.125v3.125h-1.25v-3.125c.0028-2.4151,1.9599-4.3722,4.375-4.375h3.75c2.4151.0028,4.3722,1.9599,4.375,4.375v3.125Z"/><rect id="_Transparent_Rectangle_-2" class="cls-1" x="206.0509" y="217.3068" width="20" height="20"/><text class="cls-14" transform="translate(249.3295 230.0727)"><tspan x="0" y="0">Log in</tspan></text><rect class="cls-30" x="190.0811" y="420.789" width="113.9696" height="48"/><rect class="cls-22" x="190.0811" y="420.789" width="48" height="48"/><path class="cls-17" d="m214.0811,437.289c1.7259,0,3.125,1.3991,3.125,3.125s-1.3991,3.125-3.125,3.125-3.125-1.3991-3.125-3.125c.002-1.7251,1.3999-3.123,3.125-3.125m0-1.25c-2.4162,0-4.375,1.9588-4.375,4.375s1.9588,4.375,4.375,4.375,4.375-1.9588,4.375-4.375-1.9588-4.375-4.375-4.375Z"/><path class="cls-17" d="m220.3311,453.539h-1.25v-3.125c-.002-1.725-1.4-3.123-3.125-3.125h-3.75c-1.725.002-3.123,1.4-3.125,3.125v3.125h-1.25v-3.125c.0028-2.4151,1.9599-4.3722,4.375-4.375h3.75c2.4151.0028,4.3722,1.9599,4.375,4.375v3.125Z"/><rect id="_Transparent_Rectangle_-3" class="cls-1" x="204.0811" y="434.789" width="20" height="20"/><text class="cls-14" transform="translate(247.0658 442.1067)"><tspan x="0" y="0">Account </tspan><tspan x="0" y="18">Creation</tspan></text><path class="cls-19" d="m466.96,154.8216c-.8,0-1.5-.7-1.5-1.5v-10.3c0-.8.7-1.5,1.5-1.5.3,0,.5.1.7.2h0l9.5,5.2c.7.4,1,1.3.6,2-.1.3-.3.5-.6.6l-9.5,5.2c-.2.1-.5001.1-.7.1Zm.5-10.9v8.6l7.9-4.3-7.9-4.3Zm-.8-.5h0Z"/><rect class="cls-30" x="259.3192" y="121.5696" width="151.158" height="48"/><rect class="cls-22" x="259.3192" y="121.5696" width="48" height="48"/><text class="cls-14" transform="translate(316.5978 148.3331)"><tspan x="0" y="0">Review Price </tspan><tspan x="0" y="18">Estimate</tspan></text><circle class="cls-15" cx="283.7825" cy="145.5597" r="2"/><path class="cls-15" d="m291.0733,145.1202c-1.3342-2.8036-4.1964-4.5605-7.2908-4.5605s-5.9567,1.7569-7.2908,4.5605l-.2092.4395.2092.4395c1.3342,2.8036,4.1964,4.5605,7.2908,4.5605s5.9567-1.7569,7.2908-4.5605l.2092-.4395-.2092-.4395Zm-7.2908,4.471c-2.2229,0-4.0315-1.8086-4.0315-4.0315s1.8086-4.0315,4.0315-4.0315,4.0315,1.8086,4.0315,4.0315-1.8086,4.0315-4.0315,4.0315Z"/><rect class="cls-30" x="652.3478" y="121.5597" width="155.7728" height="48"/><rect class="cls-22" x="651.2809" y="121.0993" width="48" height="48"/><text class="cls-14" transform="translate(713.7263 130.8775)"><tspan x="0" y="0">Apply code</tspan><tspan x="0" y="18">and create </tspan><tspan x="0" y="36">instance</tspan></text><polygon class="cls-15" points="676.6909 148.0993 674.1009 145.5093 672.6909 146.9193 676.6909 150.9193 683.6908 143.9193 682.2808 142.5093 676.6909 148.0993"/><line class="cls-25" x1="435.9686" y1="151.1972" x2="412.8686" y2="151.1972"/><polygon class="cls-22" points="443.0686 151.1972 433.1686 147.0973 435.4686 151.1972 433.1686 155.2972 443.0686 151.1972"/><line class="cls-25" x1="643.1965" y1="149.3043" x2="620.0965" y2="149.3043"/><polygon class="cls-22" points="650.2965 149.3043 640.3965 145.2043 642.6965 149.3043 640.3965 153.4043 650.2965 149.3043"/><line class="cls-25" x1="829.3826" y1="150.1144" x2="806.2827" y2="150.1144"/><polygon class="cls-22" points="836.4826 150.1144 826.5827 146.0144 828.8826 150.1144 826.5827 154.2144 836.4826 150.1144"/><line class="cls-25" x1="249.7825" y1="154.2144" x2="226.6825" y2="154.2144"/><polygon class="cls-22" points="256.8825 154.2144 246.9825 150.1144 249.2825 154.2144 246.9825 158.3144 256.8825 154.2144"/><line class="cls-26" x1="226.7258" y1="194.733" x2="226.6825" y2="154.2144"/><rect class="cls-29" x="878.4425" y="119.6227" width="157.3407" height="48"/><rect class="cls-27" x="878.4425" y="119.6227" width="48" height="48"/><path class="cls-17" d="m917.5425,136.2228c-.4-.4-1-.4-1.4,0l-5.7,5.7-4,.9c-.9.2-1.6,1-1.6,2v4.2h-4.6l1.6-4.8v-2.2c0-1.1.9-2,2-2h4c.6,0,1-.4,1-1s-.4-1-1-1h-4c-2.2,0-4,1.8-4,4v1.8l-1.7,5.2h-2.3v2h11v-6.2l3.7-.8c.5,0,.9-.2,1.3-.6l5.7-5.7c.4-.4.4-1.1,0-1.5h0Z"/><circle class="cls-17" cx="1002.204" cy="80.1196" r="1"/><line class="cls-5" x1="961.1129" y1="204.0761" x2="961.1129" y2="187.4761"/><polygon class="cls-21" points="961.1129 211.5761 965.213 201.6761 961.1129 204.0761 957.1129 201.6761 961.1129 211.5761"/><g class="cls-2"><text class="cls-12" transform="translate(942.4426 137.9821)"><tspan class="cls-37" x="0" y="0">P</tspan><tspan class="cls-36" x="8.834" y="0">r</tspan><tspan class="cls-34" x="14.2661" y="0">o</tspan><tspan x="22.0356" y="0">visioning</tspan></text></g><line class="cls-22" x1="238.0811" y1="420.789" x2="238.2325" y2="261.628"/><line class="cls-6" x1="238.0811" y1="420.789" x2="238.2267" y2="267.6632"/><path class="cls-22" d="m238.2325,261.628c1.051,2.8408,2.8455,6.366,4.7477,8.5519l-4.7542-1.7247-4.7565,1.7157c1.9064-2.1823,3.7076-5.704,4.763-8.5428Z"/><rect class="cls-30" x="872.0924" y="670.4361" width="139.5278" height="48"/><rect class="cls-22" x="872.0924" y="670.4361" width="48" height="48"/><circle class="cls-15" cx="896.0924" cy="691.6363" r="2"/><path class="cls-15" d="m903.3832,691.1969c-1.3342-2.8036-4.1964-4.5605-7.2908-4.5605s-5.9567,1.7569-7.2908,4.5605l-.2092.4395.2092.4395c1.3342,2.8036,4.1964,4.5605,7.2908,4.5605s5.9567-1.7569,7.2908-4.5605l.2092-.4395-.2092-.4395Zm-7.2908,4.471c-2.2229,0-4.0315-1.8086-4.0315-4.0315s1.8086-4.0315,4.0315-4.0315,4.0315,1.8086,4.0315,4.0315-1.8086,4.0315-4.0315,4.0315Z"/><text class="cls-14" transform="translate(936.093 688.7952)"><tspan x="0" y="0">Metered</tspan><tspan x="0" y="18">Usage</tspan></text><line class="cls-4" x1="946.6145" y1="598.2932" x2="946.6145" y2="596.0121"/><line class="cls-8" x1="946.4177" y1="591.2839" x2="945.4334" y2="555.6979"/><line class="cls-4" x1="945.4334" y1="553.3338" x2="945.335" y2="551.0941"/><polygon class="cls-20" points="946.7129 601.7772 950.6498 596.8001 946.6145 597.9614 942.5792 596.8416 946.7129 601.7772"/></svg>