<?xml version="1.0" encoding="utf-8"?>
<!-- Generator: Adobe Illustrator 27.7.0, SVG Export Plug-In . SVG Version: 6.00 Build 0)  -->
<svg version="1.1" id="Text" xmlns="http://www.w3.org/2000/svg" xmlns:xlink="http://www.w3.org/1999/xlink" x="0px" y="0px"
	 width="1500.1px" height="913.9px" viewBox="0 0 1500.1 913.9" style="enable-background:new 0 0 1500.1 913.9;"
	 xml:space="preserve">
<style type="text/css">
	.st0{fill:#FFFFFF;}
	.st1{fill:none;stroke:#6E6F72;stroke-miterlimit:10;}
	.st2{fill:none;stroke:#6E6F72;stroke-miterlimit:10;stroke-dasharray:0,0,8.7518,8.7518;}
	.st3{fill:none;stroke:#6E6F72;stroke-miterlimit:10;stroke-dasharray:0,0,9.4358,9.4358;}
	.st4{fill:#EEF5FB;stroke:#4267B1;stroke-miterlimit:10;}
	.st5{fill:#4267B1;}
	.st6{fill:none;}
	.st7{fill:#F4F4F4;stroke:#FFFFFF;stroke-miterlimit:10;}
	.st8{fill:#FFFFFF;stroke:#1C75BC;stroke-miterlimit:10;}
	.st9{fill:#F4F4F4;}
	.st10{fill:none;stroke:#2073BA;stroke-miterlimit:10;}
	.st11{fill:#2A3C90;}
	.st12{font-family:'IBMPlexSans-Bold';}
	.st13{font-size:14px;}
	.st14{fill:#010101;}
	.st15{font-family:'IBMPlexSans-SemiBold';}
	.st16{font-family:'IBMPlexSans';}
	.st17{fill:#EEF5FB;stroke:#4468B1;stroke-miterlimit:10;}
	.st18{fill:#4468B1;}
	.st19{fill:none;stroke:#4267B1;stroke-miterlimit:10;}
	.st20{fill:#2073BA;}
	.st21{font-size:12px;}
	.st22{fill:#020202;}
	.st23{fill:none;stroke:#6E6F72;stroke-miterlimit:10;stroke-dasharray:0,0,9.3279,9.3279;}
</style>
<g>
	<rect x="254.5" y="150.8" class="st0" width="865.2" height="209.8"/>
	<polyline class="st1" points="1119.6,355 1119.6,360.6 1106.6,360.6 	"/>
	<line class="st2" x1="1081.2" y1="360.6" x2="280.2" y2="360.6"/>
	<polyline class="st1" points="267.5,360.6 254.5,360.6 254.5,355 	"/>
	<line class="st3" x1="254.5" y1="343.3" x2="254.5" y2="162.2"/>
	<polyline class="st1" points="254.5,156.4 254.5,150.8 267.5,150.8 	"/>
	<line class="st2" x1="293.1" y1="150.8" x2="1094.1" y2="150.8"/>
	<polyline class="st1" points="1106.6,150.8 1119.6,150.8 1119.6,156.4 	"/>
	<line class="st3" x1="1119.6" y1="168" x2="1119.6" y2="349.1"/>
	<rect x="254.5" y="150.8" class="st0" width="865.2" height="209.8"/>
	<rect x="254.5" y="150.8" class="st0" width="865.2" height="209.8"/>
	<rect x="254.5" y="150.8" class="st1" width="865.2" height="209.8"/>
	<rect x="254.5" y="150.8" class="st0" width="865.2" height="209.8"/>
	<polyline class="st1" points="1119.6,355 1119.6,360.6 1106.6,360.6 	"/>
	<line class="st2" x1="1081.2" y1="360.6" x2="280.2" y2="360.6"/>
	<polyline class="st1" points="267.5,360.6 254.5,360.6 254.5,355 	"/>
	<line class="st3" x1="254.5" y1="343.3" x2="254.5" y2="162.2"/>
	<polyline class="st1" points="254.5,156.4 254.5,150.8 267.5,150.8 	"/>
	<line class="st2" x1="293.1" y1="150.8" x2="1094.1" y2="150.8"/>
	<polyline class="st1" points="1106.6,150.8 1119.6,150.8 1119.6,156.4 	"/>
	<line class="st3" x1="1119.6" y1="168" x2="1119.6" y2="349.1"/>
	<rect x="432.5" y="209.1" class="st0" width="309.4" height="86.5"/>
	<polyline class="st1" points="741.9,293.3 741.9,295.6 737.2,295.6 	"/>
	<line class="st2" x1="728.2" y1="295.6" x2="441.7" y2="295.6"/>
	<polyline class="st1" points="437.2,295.6 432.5,295.6 432.5,293.3 	"/>
	<line class="st3" x1="432.5" y1="288.5" x2="432.5" y2="213.8"/>
	<polyline class="st1" points="432.5,211.4 432.5,209.1 437.2,209.1 	"/>
	<line class="st2" x1="446.2" y1="209.1" x2="732.8" y2="209.1"/>
	<polyline class="st1" points="737.2,209.1 741.9,209.1 741.9,211.4 	"/>
	<line class="st3" x1="741.9" y1="216.2" x2="741.9" y2="290.9"/>
	<rect x="432.5" y="209.1" class="st0" width="309.4" height="86.5"/>
	<rect x="432.5" y="209.1" class="st0" width="309.4" height="86.5"/>
	<rect x="432.5" y="209.1" class="st1" width="309.4" height="86.5"/>
	<rect x="432.5" y="209.1" class="st0" width="309.4" height="86.5"/>
	<polyline class="st1" points="741.9,293.3 741.9,295.6 737.2,295.6 	"/>
	<line class="st2" x1="728.2" y1="295.6" x2="441.7" y2="295.6"/>
	<polyline class="st1" points="437.2,295.6 432.5,295.6 432.5,293.3 	"/>
	<line class="st3" x1="432.5" y1="288.5" x2="432.5" y2="213.8"/>
	<polyline class="st1" points="432.5,211.4 432.5,209.1 437.2,209.1 	"/>
	<line class="st2" x1="446.2" y1="209.1" x2="732.8" y2="209.1"/>
	<polyline class="st1" points="737.2,209.1 741.9,209.1 741.9,211.4 	"/>
	<line class="st3" x1="741.9" y1="216.2" x2="741.9" y2="290.9"/>
	<rect x="59.3" y="98.3" class="st4" width="114" height="48"/>
	<rect x="59.3" y="98.3" class="st5" width="48" height="48"/>
	<path class="st0" d="M83.3,114.8c1.7,0,3.1,1.4,3.1,3.1S85,121,83.3,121s-3.1-1.4-3.1-3.1C80.1,116.2,81.5,114.8,83.3,114.8
		 M83.3,113.5c-2.4,0-4.4,2-4.4,4.4s2,4.4,4.4,4.4s4.4-2,4.4-4.4S85.7,113.5,83.3,113.5z"/>
	<path class="st0" d="M89.5,131h-1.2v-3.1c0-1.7-1.4-3.1-3.1-3.1h-3.8c-1.7,0-3.1,1.4-3.1,3.1v3.1H77v-3.1c0-2.4,2-4.4,4.4-4.4h3.8
		c2.4,0,4.4,2,4.4,4.4v3.1H89.5z"/>
	<rect id="_Transparent_Rectangle_" x="73.3" y="112.3" class="st6" width="20" height="20"/>
	<rect x="287.6" y="230.5" class="st4" width="122.5" height="48"/>
	<rect x="287.6" y="230.5" class="st5" width="48" height="48"/>
	<path class="st7" d="M320.4,255.9v-2.7h-2.6c-0.2-0.8-0.5-1.6-0.9-2.3l1.9-2L317,247l-1.9,2c-0.7-0.5-1.4-0.8-2.2-1v-2.8h-2.5v2.8
		c-0.8,0.2-1.5,0.5-2.2,1l-1.9-2l-1.8,1.9l1.9,2c-0.4,0.7-0.8,1.5-0.9,2.3h-2.6v2.6h2.6c0.2,0.8,0.5,1.6,0.9,2.3l-1.9,2l1.8,1.9
		l1.9-2c0.7,0.5,1.4,0.8,2.2,1v2.8h2.5V261c0.8-0.2,1.5-0.5,2.2-1l1.9,2l1.8-1.9l-1.9-2c0.4-0.7,0.8-1.5,0.9-2.3L320.4,255.9
		L320.4,255.9L320.4,255.9z M311.6,258.5c-2.1,0-3.8-1.8-3.8-3.9c0-2.2,1.7-3.9,3.8-3.9s3.8,1.8,3.8,3.9
		C315.4,256.7,313.7,258.5,311.6,258.5z"/>
	<rect x="442.2" y="230.5" class="st4" width="122.5" height="48"/>
	<rect x="442.2" y="230.5" class="st5" width="48" height="48"/>
	<rect x="605.7" y="231.5" class="st4" width="122.5" height="48"/>
	<rect x="605.7" y="231.5" class="st5" width="48" height="48"/>
	<rect x="703.2" y="622.4" class="st4" width="122.5" height="48"/>
	<rect x="703.2" y="622.4" class="st5" width="48" height="48"/>
	<path class="st8" d="M647.2,260.4v6.7c0,1-7.9,1.7-17.6,1.6c-9.7-0.1-17.5-0.9-17.5-1.9v-6.7c0,1,7.8,1.8,17.5,1.9
		C639.4,262.1,647.2,261.3,647.2,260.4L647.2,260.4z"/>
	<path class="st8" d="M647.4,244.2c0,1-7.9,1.7-17.6,1.6c-9.7-0.1-17.5-0.9-17.5-1.9s7.9-1.7,17.5-1.6
		C639.5,242.4,647.4,243.2,647.4,244.2z"/>
	<path class="st8" d="M647.2,252.7v6.7c0,1-7.9,1.7-17.6,1.6c-9.7-0.1-17.5-0.9-17.5-1.9v-6.7c0,1,7.8,1.8,17.5,1.9
		C639.4,254.4,647.2,253.7,647.2,252.7z"/>
	<path class="st8" d="M647.2,245.1v6.7c0,1-7.9,1.7-17.6,1.6c-9.7-0.1-17.5-0.9-17.5-1.9v-6.7c0,1,7.8,1.8,17.5,1.9
		C639.5,246.8,647.2,246.1,647.2,245.1z"/>
	<circle class="st9" cx="840.6" cy="669.4" r="1"/>
	<circle class="st9" cx="844.7" cy="672.4" r="1"/>
	<circle class="st9" cx="844.7" cy="664.4" r="1"/>
	<line class="st10" x1="587.2" y1="206.8" x2="587.2" y2="197.3"/>
	<polygon class="st5" points="587.2,209.1 591.2,205.8 587.2,206.6 583,205.8 	"/>
	<path class="st9" d="M476.9,241.5c-2.2,0-4,1.8-4,4c0,0.7,0.2,1.4,0.6,2l-3,3h-8.6v10h10v-8.6l3-3c0.6,0.4,1.3,0.6,2,0.6
		c2.2,0,4-1.8,4-4C480.9,243.3,479.1,241.5,476.9,241.5L476.9,241.5z M469.9,258.5h-6v-6h6V258.5z M476.9,247.5c-1.1,0-2-0.9-2-2
		s0.9-2,2-2s2,0.9,2,2S478,247.5,476.9,247.5z"/>
	<circle class="st9" cx="727.2" cy="643.6" r="2"/>
	<path class="st9" d="M734.5,643.1c-1.3-2.8-4.2-4.6-7.3-4.6s-6,1.8-7.3,4.6l-0.2,0.4l0.2,0.4c1.3,2.8,4.2,4.6,7.3,4.6
		s6-1.8,7.3-4.6l0.2-0.4L734.5,643.1z M727.2,647.6c-2.2,0-4-1.8-4-4s1.8-4,4-4s4,1.8,4,4S729.4,647.6,727.2,647.6z"/>
	<text transform="matrix(1 0 0 1 254.4908 42.4461)" class="st11 st12 st13">IBM </text>
	<text transform="matrix(1 0 0 1 284.6461 42.4461)" class="st11 st12 st13">w</text>
	<text transform="matrix(1 0 0 1 296.2242 42.4461)" class="st11 st12 st13">a</text>
	<text transform="matrix(1 0 0 1 304.106 42.4461)" class="st11 st12 st13">tsonx</text>
	<text transform="matrix(1 0 0 1 340.6036 42.4461)" class="st11 st12 st13">.</text>
	<text transform="matrix(1 0 0 1 344.734 42.4461)" class="st11 st12 st13">d</text>
	<text transform="matrix(1 0 0 1 353.2457 42.4461)" class="st11 st12 st13">a</text>
	<text transform="matrix(1 0 0 1 361.1275 42.4461)" class="st11 st12 st13">ta</text>
	<text transform="matrix(1 0 0 1 351.5723 248.8524)" class="st14 st15 st13">Presto </text>
	<text transform="matrix(1 0 0 1 351.5723 266.8524)" class="st14 st15 st13">Engine</text>
	<text transform="matrix(1 0 0 1 506.1186 248.8524)" class="st14 st15 st13">Catalog</text>
	<text transform="matrix(1 0 0 1 254.4011 98.0722)" class="st14 st16 st13">IBM watsonx.data console</text>
	<text transform="matrix(1 0 0 1 669.6653 249.8225)" class="st14 st15 st13">Database</text>
	<text transform="matrix(1 0 0 1 767.1616 640.728)" class="st14 st15 st13">Display</text>
	<text transform="matrix(1 0 0 1 767.1616 658.728)" class="st14 st15 st13">Result</text>
	<rect x="689.6" y="527.5" class="st4" width="139.5" height="48"/>
	<rect x="689.6" y="527.5" class="st5" width="48" height="48"/>
	<text transform="matrix(1 0 0 1 753.6429 555.8237)" class="st14 st15 st13">Join Data</text>
	<text transform="matrix(1 0 0 1 124.9552 125.0066)" class="st14 st15 st13">User</text>
	<line class="st10" x1="584.5" y1="122.9" x2="179.5" y2="122.9"/>
	<polygon class="st5" points="592.2,122.5 582.2,118.4 584.5,122.5 582.2,126.6 	"/>
	<rect x="684.9" y="442.1" class="st17" width="157.3" height="48"/>
	<rect x="684.9" y="442.1" class="st18" width="48" height="48"/>
	<line class="st19" x1="157.8" y1="551.5" x2="675.4" y2="551.5"/>
	<path class="st5" d="M681.4,551.5c-2.8,1.1-6.4,2.9-8.5,4.8l1.7-4.8l-1.7-4.8C675,548.6,678.6,550.4,681.4,551.5z"/>
	<rect x="780.8" y="210.3" class="st0" width="309.4" height="86.5"/>
	<polyline class="st1" points="1090.1,294.5 1090.1,296.8 1085.4,296.8 	"/>
	<line class="st2" x1="1076.4" y1="296.8" x2="790" y2="296.8"/>
	<polyline class="st1" points="785.4,296.8 780.8,296.8 780.8,294.5 	"/>
	<line class="st3" x1="780.8" y1="289.6" x2="780.8" y2="215"/>
	<polyline class="st1" points="780.8,212.6 780.8,210.3 785.4,210.3 	"/>
	<line class="st2" x1="794.5" y1="210.3" x2="1081.1" y2="210.3"/>
	<polyline class="st1" points="1085.4,210.3 1090.1,210.3 1090.1,212.6 	"/>
	<line class="st3" x1="1090.1" y1="217.4" x2="1090.1" y2="292"/>
	<rect x="780.8" y="210.3" class="st0" width="309.4" height="86.5"/>
	<rect x="780.8" y="210.3" class="st0" width="309.4" height="86.5"/>
	<rect x="780.8" y="210.3" class="st1" width="309.4" height="86.5"/>
	<rect x="780.8" y="210.3" class="st0" width="309.4" height="86.5"/>
	<polyline class="st1" points="1090.1,294.5 1090.1,296.8 1085.4,296.8 	"/>
	<line class="st2" x1="1076.4" y1="296.8" x2="790" y2="296.8"/>
	<polyline class="st1" points="785.4,296.8 780.8,296.8 780.8,294.5 	"/>
	<line class="st3" x1="780.8" y1="289.6" x2="780.8" y2="215"/>
	<polyline class="st1" points="780.8,212.6 780.8,210.3 785.4,210.3 	"/>
	<line class="st2" x1="794.5" y1="210.3" x2="1081.1" y2="210.3"/>
	<polyline class="st1" points="1085.4,210.3 1090.1,210.3 1090.1,212.6 	"/>
	<line class="st3" x1="1090.1" y1="217.4" x2="1090.1" y2="292"/>
	<rect x="790.4" y="231.7" class="st4" width="122.5" height="48"/>
	<rect x="790.4" y="231.7" class="st5" width="48" height="48"/>
	<rect x="954" y="232.7" class="st4" width="122.5" height="48"/>
	<rect x="954" y="232.7" class="st5" width="48" height="48"/>
	<path class="st8" d="M995.4,261.6v6.7c0,1-7.9,1.7-17.6,1.6c-9.7-0.1-17.5-0.9-17.5-1.9v-6.7c0,1,7.8,1.8,17.5,1.9
		C987.5,263.3,995.4,262.5,995.4,261.6z"/>
	<path class="st8" d="M995.5,245.4c0,1-7.9,1.7-17.6,1.6c-9.7-0.1-17.5-0.9-17.5-1.9s7.9-1.7,17.5-1.6
		C987.7,243.6,995.5,244.4,995.5,245.4z"/>
	<path class="st8" d="M995.5,253.9v6.7c0,1-7.9,1.7-17.6,1.6c-9.7-0.1-17.5-0.9-17.5-1.9v-6.7c0,1,7.8,1.8,17.5,1.9
		C987.5,255.6,995.5,254.9,995.5,253.9z"/>
	<path class="st8" d="M995.5,246.3v6.7c0,1-7.9,1.7-17.6,1.6c-9.7-0.1-17.5-0.9-17.5-1.9V246c0,1,7.8,1.8,17.5,1.9
		C987.7,248,995.5,247.3,995.5,246.3z"/>
	<text transform="matrix(1 0 0 1 854.3879 250.0271)" class="st14 st15 st13">Catalog</text>
	<text transform="matrix(1 0 0 1 1017.9346 250.9973)" class="st14 st15 st13">Database</text>
	<text transform="matrix(1 0 0 1 259.0875 167.9993)" class="st14 st16 st13">Infrastructure Manager</text>
	<text transform="matrix(1 0 0 1 573.5987 194.2563)" class="st14 st16 st13">DB2</text>
	<text transform="matrix(1 0 0 1 935.4295 194.2563)" class="st14 st16 st13">Netezza</text>
	<line class="st10" x1="960.5" y1="205.6" x2="960.5" y2="196.2"/>
	<polygon class="st5" points="960.5,207.9 964.5,204.6 960.5,205.4 956.4,204.6 	"/>
	<polygon class="st9" points="713.2,459.7 711.4,461.5 714.4,464.6 704.3,465 704.2,467.5 714.3,467 711,470.4 712.6,472.1 
		719.1,465.6 	"/>
	<circle class="st9" cx="801.5" cy="556.6" r="1"/>
	<circle class="st9" cx="787.5" cy="536.6" r="1"/>
	<polygon class="st9" points="795.5,556.6 795.5,546.5 798.2,549.1 799.5,547.6 794.5,542.6 789.5,547.6 791,549.1 793.5,546.5 
		793.5,556.6 	"/>
	<path class="st9" d="M819.9,243.2c-2.2,0-4,1.8-4,4c0,0.7,0.2,1.4,0.6,2l-3,3h-8.6v10h10v-8.6l3-3c0.6,0.4,1.3,0.6,2,0.6
		c2.2,0,4-1.8,4-4C823.9,245,822,243.2,819.9,243.2L819.9,243.2z M812.9,260.2h-6v-6h6V260.2z M819.9,249.2c-1.1,0-2-0.9-2-2
		s0.9-2,2-2s2,0.9,2,2S821,249.2,819.9,249.2z"/>
	<circle class="st0" cx="708.7" cy="543.5" r="1"/>
	<path class="st0" d="M723.7,557.5c-0.2,0-0.4,0-0.6,0.1l-3.9-6.3c0.4-0.5,0.6-1.1,0.6-1.7c0-1.7-1.3-3-3-3s-3,1.3-3,3
		c0,0.7,0.2,1.3,0.7,1.8l-3.9,6.2c-0.2-0.1-0.5-0.1-0.7-0.1c-1.7,0-3,1.3-3,3s1.3,3,3,3c1.3,0,2.4-0.8,2.8-2h8.4
		c0.4,1.2,1.5,2,2.8,2c1.7,0,3-1.3,3-3S725.3,557.5,723.7,557.5L723.7,557.5z M712,558.7l4-6.3c0.2,0,0.4,0.1,0.7,0.1s0.5,0,0.8-0.1
		l3.9,6.3c-0.2,0.3-0.4,0.5-0.5,0.9h-8.4C712.4,559.2,712.2,558.9,712,558.7L712,558.7z M716.7,548.5c0.6,0,1,0.4,1,1s-0.4,1-1,1
		s-1-0.4-1-1S716.1,548.5,716.7,548.5z M709.7,561.5c-0.6,0-1-0.4-1-1s0.4-1,1-1s1,0.4,1,1S710.2,561.5,709.7,561.5z M723.7,561.5
		c-0.6,0-1-0.4-1-1s0.4-1,1-1s1,0.4,1,1S724.2,561.5,723.7,561.5z"/>
	<line class="st10" x1="763.5" y1="520.9" x2="763.5" y2="491.7"/>
	<rect x="38.6" y="528.4" class="st4" width="114" height="48"/>
	<rect x="38.6" y="528.4" class="st5" width="48" height="48"/>
	<path class="st0" d="M62.6,544.9c1.7,0,3.1,1.4,3.1,3.1s-1.4,3.1-3.1,3.1s-3.1-1.4-3.1-3.1S60.9,544.9,62.6,544.9 M62.6,543.6
		c-2.4,0-4.4,2-4.4,4.4s2,4.4,4.4,4.4s4.4-2,4.4-4.4S65,543.6,62.6,543.6z"/>
	<path class="st0" d="M68.9,561.1h-1.2V558c0-1.7-1.4-3.1-3.1-3.1h-3.8c-1.7,0-3.1,1.4-3.1,3.1v3.1h-1.2V558c0-2.4,2-4.4,4.4-4.4
		h3.8c2.4,0,4.4,2,4.4,4.4v3.1H68.9z"/>
	<rect id="_Transparent_Rectangle_-2" x="52.6" y="542.4" class="st6" width="20" height="20"/>
	<text transform="matrix(1 0 0 1 104.3596 555.1124)" class="st14 st15 st13">User</text>
	<line class="st10" x1="760.3" y1="610.8" x2="760.3" y2="579.4"/>
	<polygon class="st20" points="760.3,615 764.4,609.1 760.3,610.5 756.2,609.1 	"/>
	<g>
		<text transform="matrix(1 0 0 1 446.2635 113.4902)" class="st5 st16 st21">1</text>
	</g>
	<rect x="619.5" y="88.3" class="st17" width="157.3" height="48"/>
	<rect x="619.5" y="88.3" class="st18" width="48" height="48"/>
	<path class="st0" d="M658.7,104.9c-0.4-0.4-1-0.4-1.4,0l-5.7,5.7l-4,0.9c-0.9,0.2-1.6,1-1.6,2v4.2h-4.6l1.6-4.8v-2.2
		c0-1.1,0.9-2,2-2h4c0.6,0,1-0.4,1-1s-0.4-1-1-1h-4c-2.2,0-4,1.8-4,4v1.8l-1.7,5.2H637v2h11v-6.2l3.7-0.8c0.5,0,0.9-0.2,1.3-0.6
		l5.7-5.7C659,106,659,105.3,658.7,104.9L658.7,104.9z"/>
	<g>
		<text transform="matrix(1 0 0 1 683.5777 106.5997)" class="st22 st15 st13">P</text>
		<text transform="matrix(1 0 0 1 692.4117 106.5997)" class="st22 st15 st13">r</text>
		<text transform="matrix(1 0 0 1 697.8438 106.5997)" class="st22 st15 st13">o</text>
		<text transform="matrix(1 0 0 1 705.6133 106.5997)" class="st22 st15 st13">visioning</text>
	</g>
	<line class="st10" x1="695.9" y1="147.9" x2="695.9" y2="136"/>
	<polygon class="st5" points="695.9,150.8 700,146.7 695.9,147.6 691.8,146.7 	"/>
	<g>
		<text transform="matrix(1 0 0 1 348.8453 325.9278)" class="st5 st16 st21">2</text>
	</g>
	<g>
		<text transform="matrix(1 0 0 1 606.7015 325.9282)" class="st5 st16 st21">3</text>
	</g>
	<line class="st10" x1="572.5" y1="382.2" x2="572.5" y2="353.9"/>
	<polygon class="st5" points="572.5,389.2 576.5,379.3 572.5,381.6 568.4,379.3 	"/>
	<line class="st10" x1="732.9" y1="420.1" x2="732.9" y2="391.8"/>
	<polygon class="st5" points="732.9,427.7 737,417.8 732.9,420.1 728.8,417.8 	"/>
	<line class="st10" x1="963.4" y1="382.4" x2="963.4" y2="354.1"/>
	<polygon class="st5" points="963.4,389.4 967.5,379.5 963.4,381.8 959.2,379.5 	"/>
	<line class="st10" x1="799.5" y1="418.7" x2="799.5" y2="390.4"/>
	<polygon class="st5" points="799.6,425.8 803.7,415.9 799.6,418.2 795.4,415.9 	"/>
	<g>
		<text transform="matrix(1 0 0 1 981.9343 325.9278)" class="st5 st16 st21">4</text>
	</g>
	<g>
		<text transform="matrix(1 0 0 1 653.6498 477.1748)" class="st5 st16 st21">5</text>
	</g>
	<g>
		<text transform="matrix(1 0 0 1 407.6582 542.3459)" class="st5 st16 st21">6</text>
	</g>
	<line class="st10" x1="734.3" y1="391.2" x2="573" y2="391.2"/>
	<line class="st10" x1="960.9" y1="389.4" x2="799.5" y2="389.4"/>
	<text transform="matrix(1 0 0 1 750.05 468.7988)" class="st15 st13">Read Data</text>
	<polygon class="st5" points="763.5,528.5 767.6,518.6 763.5,520.9 759.4,518.6 	"/>
	<rect x="204" y="16" class="st23" width="958" height="727"/>
</g>
</svg>
