<?xml version="1.0" encoding="utf-8"?>
<!-- Generator: Adobe Illustrator 27.7.0, SVG Export Plug-In . SVG Version: 6.00 Build 0)  -->
<svg version="1.1" id="Text" xmlns="http://www.w3.org/2000/svg" xmlns:xlink="http://www.w3.org/1999/xlink" x="0px" y="0px"
	 width="1500.1px" height="913.9px" viewBox="0 0 1500.1 913.9" style="enable-background:new 0 0 1500.1 913.9;"
	 xml:space="preserve">
<style type="text/css">
	.st0{fill:#FFFFFF;}
	.st1{fill:none;stroke:#6E6F72;stroke-miterlimit:10;}
	.st2{fill:none;stroke:#6E6F72;stroke-miterlimit:10;stroke-dasharray:0,0,9.3279,9.3279;}
	.st3{fill:none;stroke:#6E6F72;stroke-miterlimit:10;stroke-dasharray:0,0,9.2234,9.2234;}
	.st4{fill:none;stroke:#6E6F72;stroke-miterlimit:10;stroke-dasharray:0,0,8.7518,8.7518;}
	.st5{fill:none;stroke:#6E6F72;stroke-miterlimit:10;stroke-dasharray:0,0,9.4358,9.4358;}
	.st6{fill:#EEF5FB;stroke:#4267B1;stroke-miterlimit:10;}
	.st7{fill:#4267B1;}
	.st8{fill:none;}
	.st9{fill:#F4F4F4;stroke:#FFFFFF;stroke-miterlimit:10;}
	.st10{fill:#FFFFFF;stroke:#FFFFFF;stroke-miterlimit:10;}
	.st11{fill:#FFFFFF;stroke:#1C75BC;stroke-miterlimit:10;}
	.st12{fill:#F4F4F4;}
	.st13{fill:none;stroke:#2073BA;stroke-miterlimit:10;}
	.st14{fill:#2A3C90;}
	.st15{font-family:'IBMPlexSans-Bold';}
	.st16{font-size:14px;}
	.st17{fill:#010101;}
	.st18{font-family:'IBMPlexSans-SemiBold';}
	.st19{font-family:'IBMPlexSans';}
	.st20{fill:#EEF5FB;stroke:#4468B1;stroke-miterlimit:10;}
	.st21{fill:#4468B1;}
	.st22{fill:#020202;}
	.st23{fill:none;stroke:#4267B1;stroke-miterlimit:10;}
	.st24{fill:#2073BA;}
	.st25{font-size:12px;}
</style>
<g>
	<rect x="226.3" y="62.1" class="st0" width="1013.4" height="792"/>
	<polyline class="st1" points="1240.1,842.5 1240.1,853.9 1219.7,853.9 	"/>
	<line class="st2" x1="1177.5" y1="853.9" x2="268" y2="853.9"/>
	<polyline class="st1" points="246.7,853.9 226.3,853.9 226.3,842.5 	"/>
	<line class="st3" x1="226.3" y1="819.3" x2="226.3" y2="85.2"/>
	<polyline class="st1" points="226.3,73.5 226.3,62.1 246.7,62.1 	"/>
	<line class="st2" x1="289.3" y1="62.1" x2="1198.4" y2="62.1"/>
	<polyline class="st1" points="1219.7,62.1 1240.1,62.1 1240.1,73.5 	"/>
	<line class="st3" x1="1240.1" y1="96.8" x2="1240.1" y2="830.9"/>
	<rect x="226.3" y="62.1" class="st0" width="1013.4" height="792"/>
	<rect x="226.3" y="62.1" class="st0" width="1013.4" height="792"/>
	<rect x="226.3" y="62.1" class="st1" width="1013.4" height="792"/>
	<rect x="226.3" y="62.1" class="st0" width="1013.4" height="792"/>
	<polyline class="st1" points="1240.1,842.5 1240.1,853.9 1219.7,853.9 	"/>
	<line class="st2" x1="1177.5" y1="853.9" x2="268" y2="853.9"/>
	<polyline class="st1" points="246.7,853.9 226.3,853.9 226.3,842.5 	"/>
	<line class="st3" x1="226.3" y1="819.3" x2="226.3" y2="85.2"/>
	<polyline class="st1" points="226.3,73.5 226.3,62.1 246.7,62.1 	"/>
	<line class="st2" x1="289.3" y1="62.1" x2="1198.4" y2="62.1"/>
	<polyline class="st1" points="1219.7,62.1 1240.1,62.1 1240.1,73.5 	"/>
	<line class="st3" x1="1240.1" y1="96.8" x2="1240.1" y2="830.9"/>
	<rect x="265.9" y="372.1" class="st0" width="865.4" height="254.4"/>
	<polyline class="st1" points="1131.7,622.7 1131.7,626.4 1114.2,626.4 	"/>
	<line class="st2" x1="1078.2" y1="626.4" x2="301.5" y2="626.4"/>
	<polyline class="st1" points="283.3,626.4 265.9,626.4 265.9,622.7 	"/>
	<line class="st3" x1="265.9" y1="615.3" x2="265.9" y2="379.5"/>
	<polyline class="st1" points="265.9,375.7 265.9,372.1 283.3,372.1 	"/>
	<line class="st2" x1="319.7" y1="372.1" x2="1096" y2="372.1"/>
	<polyline class="st1" points="1114.2,372.1 1131.7,372.1 1131.7,375.7 	"/>
	<line class="st3" x1="1131.7" y1="383.2" x2="1131.7" y2="619"/>
	<rect x="265.9" y="372.1" class="st0" width="865.4" height="254.4"/>
	<rect x="265.9" y="372.1" class="st0" width="865.4" height="254.4"/>
	<rect x="265.9" y="372.1" class="st1" width="865.4" height="254.4"/>
	<rect x="265.9" y="372.1" class="st0" width="865.4" height="254.4"/>
	<polyline class="st1" points="1131.7,622.7 1131.7,626.4 1114.2,626.4 	"/>
	<line class="st2" x1="1078.2" y1="626.4" x2="301.5" y2="626.4"/>
	<polyline class="st1" points="283.3,626.4 265.9,626.4 265.9,622.7 	"/>
	<line class="st3" x1="265.9" y1="615.3" x2="265.9" y2="379.5"/>
	<polyline class="st1" points="265.9,375.7 265.9,372.1 283.3,372.1 	"/>
	<line class="st2" x1="319.7" y1="372.1" x2="1096" y2="372.1"/>
	<polyline class="st1" points="1114.2,372.1 1131.7,372.1 1131.7,375.7 	"/>
	<line class="st3" x1="1131.7" y1="383.2" x2="1131.7" y2="619"/>
	<rect x="266.5" y="142.8" class="st0" width="865.2" height="209.8"/>
	<polyline class="st1" points="1131.7,347 1131.7,352.6 1118.6,352.6 	"/>
	<line class="st4" x1="1093.3" y1="352.6" x2="292.3" y2="352.6"/>
	<polyline class="st1" points="279.5,352.6 266.5,352.6 266.5,347 	"/>
	<line class="st5" x1="266.5" y1="335.3" x2="266.5" y2="154.2"/>
	<polyline class="st1" points="266.5,148.4 266.5,142.8 279.5,142.8 	"/>
	<line class="st4" x1="305.1" y1="142.8" x2="1106.1" y2="142.8"/>
	<polyline class="st1" points="1118.6,142.8 1131.7,142.8 1131.7,148.4 	"/>
	<line class="st5" x1="1131.7" y1="160" x2="1131.7" y2="341.1"/>
	<rect x="266.5" y="142.8" class="st0" width="865.2" height="209.8"/>
	<rect x="266.5" y="142.8" class="st0" width="865.2" height="209.8"/>
	<rect x="266.5" y="142.8" class="st1" width="865.2" height="209.8"/>
	<rect x="266.5" y="142.8" class="st0" width="865.2" height="209.8"/>
	<polyline class="st1" points="1131.7,347 1131.7,352.6 1118.6,352.6 	"/>
	<line class="st4" x1="1093.3" y1="352.6" x2="292.3" y2="352.6"/>
	<polyline class="st1" points="279.5,352.6 266.5,352.6 266.5,347 	"/>
	<line class="st5" x1="266.5" y1="335.3" x2="266.5" y2="154.2"/>
	<polyline class="st1" points="266.5,148.4 266.5,142.8 279.5,142.8 	"/>
	<line class="st4" x1="305.1" y1="142.8" x2="1106.1" y2="142.8"/>
	<polyline class="st1" points="1118.6,142.8 1131.7,142.8 1131.7,148.4 	"/>
	<line class="st5" x1="1131.7" y1="160" x2="1131.7" y2="341.1"/>
	<rect x="444.5" y="201.1" class="st0" width="309.4" height="86.5"/>
	<polyline class="st1" points="753.9,285.3 753.9,287.6 749.3,287.6 	"/>
	<line class="st4" x1="740.2" y1="287.6" x2="453.7" y2="287.6"/>
	<polyline class="st1" points="449.2,287.6 444.5,287.6 444.5,285.3 	"/>
	<line class="st5" x1="444.5" y1="280.5" x2="444.5" y2="205.8"/>
	<polyline class="st1" points="444.5,203.4 444.5,201.1 449.2,201.1 	"/>
	<line class="st4" x1="458.3" y1="201.1" x2="744.8" y2="201.1"/>
	<polyline class="st1" points="749.3,201.1 753.9,201.1 753.9,203.4 	"/>
	<line class="st5" x1="753.9" y1="208.2" x2="753.9" y2="282.9"/>
	<rect x="444.5" y="201.1" class="st0" width="309.4" height="86.5"/>
	<rect x="444.5" y="201.1" class="st0" width="309.4" height="86.5"/>
	<rect x="444.5" y="201.1" class="st1" width="309.4" height="86.5"/>
	<rect x="444.5" y="201.1" class="st0" width="309.4" height="86.5"/>
	<polyline class="st1" points="753.9,285.3 753.9,287.6 749.3,287.6 	"/>
	<line class="st4" x1="740.2" y1="287.6" x2="453.7" y2="287.6"/>
	<polyline class="st1" points="449.2,287.6 444.5,287.6 444.5,285.3 	"/>
	<line class="st5" x1="444.5" y1="280.5" x2="444.5" y2="205.8"/>
	<polyline class="st1" points="444.5,203.4 444.5,201.1 449.2,201.1 	"/>
	<line class="st4" x1="458.3" y1="201.1" x2="744.8" y2="201.1"/>
	<polyline class="st1" points="749.3,201.1 753.9,201.1 753.9,203.4 	"/>
	<line class="st5" x1="753.9" y1="208.2" x2="753.9" y2="282.9"/>
	<rect x="71.3" y="90.3" class="st6" width="114" height="48"/>
	<rect x="71.3" y="90.3" class="st7" width="48" height="48"/>
	<path class="st0" d="M95.3,106.8c1.7,0,3.1,1.4,3.1,3.1S97,113,95.3,113s-3.1-1.4-3.1-3.1C92.1,108.2,93.5,106.8,95.3,106.8
		 M95.3,105.5c-2.4,0-4.4,2-4.4,4.4s2,4.4,4.4,4.4s4.4-2,4.4-4.4S97.7,105.5,95.3,105.5z"/>
	<path class="st0" d="M101.5,123h-1.2v-3.1c0-1.7-1.4-3.1-3.1-3.1h-3.8c-1.7,0-3.1,1.4-3.1,3.1v3.1H89v-3.1c0-2.4,2-4.4,4.4-4.4h3.8
		c2.4,0,4.4,2,4.4,4.4V123z"/>
	<rect id="_Transparent_Rectangle_" x="85.3" y="104.3" class="st8" width="20" height="20"/>
	<rect x="299.6" y="222.5" class="st6" width="122.5" height="48"/>
	<rect x="299.6" y="222.5" class="st7" width="48" height="48"/>
	<path class="st9" d="M332.4,247.9v-2.7h-2.6c-0.2-0.8-0.5-1.6-0.9-2.3l1.9-2L329,239l-1.9,2c-0.7-0.5-1.4-0.8-2.2-1v-2.8h-2.5v2.8
		c-0.8,0.2-1.5,0.5-2.2,1l-1.9-2l-1.8,1.9l1.9,2c-0.4,0.7-0.8,1.5-0.9,2.3h-2.6v2.6h2.6c0.2,0.8,0.5,1.6,0.9,2.3l-1.9,2l1.8,1.9
		l1.9-2c0.7,0.5,1.4,0.8,2.2,1v2.8h2.5V253c0.8-0.2,1.5-0.5,2.2-1l1.9,2l1.8-1.9l-1.9-2c0.4-0.7,0.8-1.5,0.9-2.3L332.4,247.9
		L332.4,247.9L332.4,247.9z M323.6,250.5c-2.1,0-3.8-1.8-3.8-3.9c0-2.2,1.7-3.9,3.8-3.9s3.8,1.8,3.8,3.9S325.7,250.5,323.6,250.5z"
		/>
	<rect x="454.2" y="222.5" class="st6" width="122.5" height="48"/>
	<rect x="454.2" y="222.5" class="st7" width="48" height="48"/>
	<rect x="519" y="563.5" class="st6" width="122.5" height="48"/>
	<rect x="519" y="563.5" class="st7" width="48" height="48"/>
	<path class="st10" d="M559.3,584.7c0-0.4-0.2-0.8-0.6-1.1l-13.7-8.7c-0.4-0.2-0.8-0.2-1.2,0l-13.7,8.7c-0.3,0.2-0.6,0.6-0.6,1.1
		l0,0c0,0.4,0.2,0.8,0.6,1.1l13.7,8.7c0.4,0.2,0.8,0.2,1.2,0l13.7-8.7C559.1,585.6,559.3,585.2,559.3,584.7L559.3,584.7z M544.5,592
		l-11.4-7.2l11.4-7.2l11.4,7.2L544.5,592z"/>
	<rect x="617.7" y="223.5" class="st6" width="122.5" height="48"/>
	<rect x="617.7" y="223.5" class="st7" width="48" height="48"/>
	<rect x="732.1" y="788.6" class="st6" width="122.5" height="48"/>
	<rect x="732.1" y="788.6" class="st7" width="48" height="48"/>
	<path class="st11" d="M659.2,252.4v6.7c0,1-7.9,1.7-17.6,1.6c-9.7-0.1-17.5-0.9-17.5-1.9v-6.7c0,1,7.8,1.8,17.5,1.9
		C651.4,254.1,659.2,253.3,659.2,252.4L659.2,252.4z"/>
	<path class="st11" d="M659.4,236.2c0,1-7.9,1.7-17.6,1.6c-9.7-0.1-17.5-0.9-17.5-1.9s7.9-1.7,17.5-1.6
		C651.5,234.4,659.4,235.2,659.4,236.2z"/>
	<path class="st11" d="M659.3,244.7v6.7c0,1-7.9,1.7-17.6,1.6c-9.7-0.1-17.5-0.9-17.5-1.9v-6.7c0,1,7.8,1.8,17.5,1.9
		C651.4,246.4,659.3,245.7,659.3,244.7z"/>
	<path class="st11" d="M659.3,237.1v6.7c0,1-7.9,1.7-17.6,1.6c-9.7-0.1-17.5-0.9-17.5-1.9v-6.7c0,1,7.8,1.8,17.5,1.9
		C651.5,238.8,659.3,238.1,659.3,237.1z"/>
	<circle class="st12" cx="869.5" cy="835.6" r="1"/>
	<circle class="st12" cx="873.6" cy="838.6" r="1"/>
	<circle class="st12" cx="873.6" cy="830.6" r="1"/>
	<line class="st13" x1="599.2" y1="198.8" x2="599.2" y2="189.3"/>
	<polygon class="st7" points="599.2,201.1 603.3,197.8 599.2,198.6 595.1,197.8 	"/>
	<path class="st12" d="M488.9,233.5c-2.2,0-4,1.8-4,4c0,0.7,0.2,1.4,0.6,2l-3,3h-8.6v10h10v-8.6l3-3c0.6,0.4,1.3,0.6,2,0.6
		c2.2,0,4-1.8,4-4S491.1,233.5,488.9,233.5L488.9,233.5z M481.9,250.5h-6v-6h6V250.5z M488.9,239.5c-1.1,0-2-0.9-2-2s0.9-2,2-2
		s2,0.9,2,2S490,239.5,488.9,239.5z"/>
	<circle class="st12" cx="756.1" cy="809.8" r="2"/>
	<path class="st12" d="M763.4,809.3c-1.3-2.8-4.2-4.6-7.3-4.6s-6,1.8-7.3,4.6l-0.2,0.4l0.2,0.4c1.3,2.8,4.2,4.6,7.3,4.6
		s6-1.8,7.3-4.6l0.2-0.4L763.4,809.3z M756.1,813.8c-2.2,0-4-1.8-4-4s1.8-4,4-4s4,1.8,4,4S758.3,813.8,756.1,813.8z"/>
	<text transform="matrix(1 0 0 1 266.5408 34.4922)" class="st14 st15 st16">IBM </text>
	<text transform="matrix(1 0 0 1 296.6961 34.4922)" class="st14 st15 st16">w</text>
	<text transform="matrix(1 0 0 1 308.2742 34.4922)" class="st14 st15 st16">a</text>
	<text transform="matrix(1 0 0 1 316.156 34.4922)" class="st14 st15 st16">tsonx</text>
	<text transform="matrix(1 0 0 1 352.6536 34.4922)" class="st14 st15 st16">.</text>
	<text transform="matrix(1 0 0 1 356.784 34.4922)" class="st14 st15 st16">d</text>
	<text transform="matrix(1 0 0 1 365.2957 34.4922)" class="st14 st15 st16">a</text>
	<text transform="matrix(1 0 0 1 373.1775 34.4922)" class="st14 st15 st16">ta</text>
	<text transform="matrix(1 0 0 1 363.6223 240.8984)" class="st17 st18 st16">Presto </text>
	<text transform="matrix(1 0 0 1 363.6223 258.8984)" class="st17 st18 st16">Engine</text>
	<text transform="matrix(1 0 0 1 518.1686 240.8984)" class="st17 st18 st16">Catalog</text>
	<text transform="matrix(1 0 0 1 583.0251 581.8515)" class="st17 st18 st16">Table</text>
	<text transform="matrix(1 0 0 1 266.4511 90.1183)" class="st17 st19 st16">IBM watsonx.data console</text>
	<text transform="matrix(1 0 0 1 681.7153 241.8686)" class="st17 st18 st16">Database</text>
	<text transform="matrix(1 0 0 1 796.0615 806.944)" class="st17 st18 st16">Display</text>
	<text transform="matrix(1 0 0 1 796.0615 824.944)" class="st17 st18 st16">Result</text>
	<rect x="718.5" y="693.7" class="st6" width="139.5" height="48"/>
	<rect x="718.5" y="693.7" class="st7" width="48" height="48"/>
	<text transform="matrix(1 0 0 1 782.5429 722.0397)" class="st17 st18 st16">Join Data</text>
	<text transform="matrix(1 0 0 1 137.0052 117.0527)" class="st17 st18 st16">User</text>
	<line class="st13" x1="596.6" y1="114.9" x2="191.5" y2="114.9"/>
	<polygon class="st7" points="604.2,114.5 594.3,110.4 596.6,114.5 594.3,118.6 	"/>
	<rect x="505.8" y="389.2" class="st20" width="157.3" height="48"/>
	<rect x="505.8" y="389.2" class="st21" width="48" height="48"/>
	<g>
		<text transform="matrix(1 0 0 1 569.8324 407.5212)" class="st22 st18 st16">D</text>
		<text transform="matrix(1 0 0 1 579.4784 407.5212)" class="st22 st18 st16">a</text>
		<text transform="matrix(1 0 0 1 587.2484 407.5212)" class="st22 st18 st16">ta </text>
		<text transform="matrix(1 0 0 1 569.8324 424.321)" class="st22 st18 st16">In</text>
		<text transform="matrix(1 0 0 1 583.9862 424.321)" class="st22 st18 st16">g</text>
		<text transform="matrix(1 0 0 1 591.5321 424.321)" class="st22 st18 st16">e</text>
		<text transform="matrix(1 0 0 1 599.3441 424.321)" class="st22 st18 st16">s</text>
		<text transform="matrix(1 0 0 1 606.2181 424.321)" class="st22 st18 st16">tion</text>
	</g>
	<line class="st23" x1="186.7" y1="717.7" x2="704.3" y2="717.7"/>
	<path class="st7" d="M710.3,717.7c-2.8,1.1-6.4,2.9-8.5,4.8l1.7-4.8l-1.7-4.8C703.9,714.8,707.5,716.6,710.3,717.7z"/>
	<rect x="792.8" y="202.3" class="st0" width="309.4" height="86.5"/>
	<polyline class="st1" points="1102.2,286.5 1102.2,288.8 1097.5,288.8 	"/>
	<line class="st4" x1="1088.5" y1="288.8" x2="802" y2="288.8"/>
	<polyline class="st1" points="797.4,288.8 792.8,288.8 792.8,286.5 	"/>
	<line class="st5" x1="792.8" y1="281.6" x2="792.8" y2="207"/>
	<polyline class="st1" points="792.8,204.6 792.8,202.3 797.4,202.3 	"/>
	<line class="st4" x1="806.6" y1="202.3" x2="1093.1" y2="202.3"/>
	<polyline class="st1" points="1097.5,202.3 1102.2,202.3 1102.2,204.6 	"/>
	<line class="st5" x1="1102.2" y1="209.4" x2="1102.2" y2="284"/>
	<rect x="792.8" y="202.3" class="st0" width="309.4" height="86.5"/>
	<rect x="792.8" y="202.3" class="st0" width="309.4" height="86.5"/>
	<rect x="792.8" y="202.3" class="st1" width="309.4" height="86.5"/>
	<rect x="792.8" y="202.3" class="st0" width="309.4" height="86.5"/>
	<polyline class="st1" points="1102.2,286.5 1102.2,288.8 1097.5,288.8 	"/>
	<line class="st4" x1="1088.5" y1="288.8" x2="802" y2="288.8"/>
	<polyline class="st1" points="797.4,288.8 792.8,288.8 792.8,286.5 	"/>
	<line class="st5" x1="792.8" y1="281.6" x2="792.8" y2="207"/>
	<polyline class="st1" points="792.8,204.6 792.8,202.3 797.4,202.3 	"/>
	<line class="st4" x1="806.6" y1="202.3" x2="1093.1" y2="202.3"/>
	<polyline class="st1" points="1097.5,202.3 1102.2,202.3 1102.2,204.6 	"/>
	<line class="st5" x1="1102.2" y1="209.4" x2="1102.2" y2="284"/>
	<rect x="802.4" y="223.7" class="st6" width="122.5" height="48"/>
	<rect x="802.4" y="223.7" class="st7" width="48" height="48"/>
	<rect x="966" y="224.7" class="st6" width="122.5" height="48"/>
	<rect x="966" y="224.7" class="st7" width="48" height="48"/>
	<path class="st11" d="M1007.4,253.6v6.7c0,1-7.9,1.7-17.6,1.6c-9.7-0.1-17.5-0.9-17.5-1.9v-6.7c0,1,7.8,1.8,17.5,1.9
		C999.6,255.3,1007.4,254.5,1007.4,253.6z"/>
	<path class="st11" d="M1007.6,237.4c0,1-7.9,1.7-17.6,1.6c-9.7-0.1-17.5-0.9-17.5-1.9s7.9-1.7,17.5-1.6
		C999.7,235.6,1007.6,236.4,1007.6,237.4z"/>
	<path class="st11" d="M1007.5,245.9v6.7c0,1-7.9,1.7-17.6,1.6c-9.7-0.1-17.5-0.9-17.5-1.9v-6.7c0,1,7.8,1.8,17.5,1.9
		C999.6,247.6,1007.5,246.9,1007.5,245.9z"/>
	<path class="st11" d="M1007.5,238.3v6.7c0,1-7.9,1.7-17.6,1.6c-9.7-0.1-17.5-0.9-17.5-1.9V238c0,1,7.8,1.8,17.5,1.9
		C999.7,240,1007.5,239.3,1007.5,238.3z"/>
	<text transform="matrix(1 0 0 1 866.4379 242.0732)" class="st17 st18 st16">Catalog</text>
	<text transform="matrix(1 0 0 1 1029.9846 243.0434)" class="st17 st18 st16">Database</text>
	<text transform="matrix(1 0 0 1 271.1375 160.0454)" class="st17 st19 st16">Infrastructure Manager</text>
	<text transform="matrix(1 0 0 1 585.6487 186.3024)" class="st17 st19 st16">DB2</text>
	<text transform="matrix(1 0 0 1 947.4795 186.3024)" class="st17 st19 st16">Netezza</text>
	<line class="st13" x1="972.5" y1="197.6" x2="972.5" y2="188.2"/>
	<polygon class="st7" points="972.5,199.9 976.6,196.6 972.5,197.4 968.4,196.6 	"/>
	<polygon class="st12" points="534.1,406.8 532.3,408.6 535.3,411.7 525.2,412.1 525.1,414.6 535.2,414.1 531.9,417.5 533.5,419.2 
		540,412.7 	"/>
	<rect x="519" y="484.5" class="st6" width="122.5" height="48"/>
	<rect x="519" y="484.5" class="st7" width="48" height="48"/>
	<path class="st11" d="M560.5,513.4v6.7c0,1-7.9,1.7-17.6,1.6c-9.7-0.1-17.5-0.9-17.5-1.9v-6.7c0,1,7.8,1.8,17.5,1.9
		C552.7,515.1,560.5,514.3,560.5,513.4z"/>
	<path class="st11" d="M560.7,497.2c0,1-7.9,1.7-17.6,1.6c-9.7-0.1-17.5-0.9-17.5-1.9s7.9-1.7,17.5-1.6
		C552.8,495.4,560.7,496.2,560.7,497.2z"/>
	<path class="st11" d="M560.6,505.7v6.7c0,1-7.9,1.7-17.6,1.6c-9.7-0.1-17.5-0.9-17.5-1.9v-6.7c0,1,7.8,1.8,17.5,1.9
		S560.6,506.7,560.6,505.7L560.6,505.7z"/>
	<path class="st11" d="M560.6,498.1v6.7c0,1-7.9,1.7-17.6,1.6c-9.7-0.1-17.5-0.9-17.5-1.9v-6.7c0,1,7.8,1.8,17.5,1.9
		C552.8,499.8,560.6,499.1,560.6,498.1z"/>
	<text transform="matrix(1 0 0 1 583.0251 502.8407)" class="st17 st18 st16">Schema</text>
	<rect x="912.7" y="565.3" class="st6" width="122.5" height="48"/>
	<rect x="912.7" y="565.3" class="st7" width="48" height="48"/>
	<path class="st10" d="M953,586.5c0-0.4-0.2-0.8-0.6-1.1l-13.7-8.7c-0.4-0.2-0.8-0.2-1.2,0l-13.7,8.7c-0.3,0.2-0.6,0.6-0.6,1.1l0,0
		c0,0.4,0.2,0.8,0.6,1.1l13.7,8.7c0.4,0.2,0.8,0.2,1.2,0l13.7-8.7C952.8,587.4,953,587,953,586.5L953,586.5z M938.2,593.8l-11.4-7.2
		l11.4-7.2l11.4,7.2L938.2,593.8z"/>
	<text transform="matrix(1 0 0 1 976.6613 583.6105)" class="st17 st18 st16">Table</text>
	<rect x="899.5" y="390.9" class="st20" width="157.3" height="48"/>
	<rect x="899.5" y="390.9" class="st21" width="48" height="48"/>
	<g>
		<text transform="matrix(1 0 0 1 963.4685 409.2801)" class="st22 st18 st16">D</text>
		<text transform="matrix(1 0 0 1 973.1145 409.2801)" class="st22 st18 st16">a</text>
		<text transform="matrix(1 0 0 1 980.8845 409.2801)" class="st22 st18 st16">ta </text>
		<text transform="matrix(1 0 0 1 963.4685 426.0799)" class="st22 st18 st16">In</text>
		<text transform="matrix(1 0 0 1 977.6223 426.0799)" class="st22 st18 st16">g</text>
		<text transform="matrix(1 0 0 1 985.1682 426.0799)" class="st22 st18 st16">e</text>
		<text transform="matrix(1 0 0 1 992.9802 426.0799)" class="st22 st18 st16">s</text>
		<text transform="matrix(1 0 0 1 999.8542 426.0799)" class="st22 st18 st16">tion</text>
	</g>
	<polygon class="st12" points="927.7,408.5 925.9,410.4 929,413.4 918.8,413.9 918.7,416.4 928.8,415.9 925.5,419.2 927.2,420.9 
		933.6,414.4 	"/>
	<rect x="912.7" y="486.2" class="st6" width="122.5" height="48"/>
	<rect x="912.7" y="486.2" class="st7" width="48" height="48"/>
	<path class="st11" d="M954.1,515.1v6.7c0,1-7.9,1.7-17.6,1.6c-9.7-0.1-17.5-0.9-17.5-1.9v-6.7c0,1,7.8,1.8,17.5,1.9
		C946.3,516.8,954.1,516,954.1,515.1z"/>
	<path class="st11" d="M954.3,498.9c0,1-7.9,1.7-17.6,1.6c-9.7-0.1-17.5-0.9-17.5-1.9s7.9-1.7,17.5-1.6
		C946.4,497.1,954.3,497.9,954.3,498.9z"/>
	<path class="st11" d="M954.2,507.4v6.7c0,1-7.9,1.7-17.6,1.6c-9.7-0.1-17.5-0.9-17.5-1.9v-6.7c0,1,7.8,1.8,17.5,1.9
		S954.2,508.4,954.2,507.4L954.2,507.4z"/>
	<path class="st11" d="M954.2,499.8v6.7c0,1-7.9,1.7-17.6,1.6c-9.7-0.1-17.5-0.9-17.5-1.9v-6.7c0,1,7.8,1.8,17.5,1.9
		C946.4,501.5,954.2,500.8,954.2,499.8z"/>
	<text transform="matrix(1 0 0 1 976.6613 504.5998)" class="st17 st18 st16">Schema</text>
	<circle class="st12" cx="813.6" cy="548.6" r="1"/>
	<circle class="st12" cx="799.6" cy="528.6" r="1"/>
	<polygon class="st12" points="807.6,548.6 807.6,538.5 810.2,541.1 811.6,539.6 806.6,534.6 801.6,539.6 803,541.1 805.6,538.5 
		805.6,548.6 	"/>
	<path class="st12" d="M831.9,235.2c-2.2,0-4,1.8-4,4c0,0.7,0.2,1.4,0.6,2l-3,3h-8.6v10h10v-8.6l3-3c0.6,0.4,1.3,0.6,2,0.6
		c2.2,0,4-1.8,4-4S834.1,235.2,831.9,235.2L831.9,235.2z M824.9,252.2h-6v-6h6V252.2z M831.9,241.2c-1.1,0-2-0.9-2-2s0.9-2,2-2
		s2,0.9,2,2S833,241.2,831.9,241.2z"/>
	<circle class="st0" cx="737.6" cy="709.7" r="1"/>
	<path class="st0" d="M752.6,723.7c-0.2,0-0.4,0-0.6,0.1l-3.9-6.3c0.4-0.5,0.6-1.1,0.6-1.7c0-1.7-1.3-3-3-3s-3,1.3-3,3
		c0,0.7,0.2,1.3,0.7,1.8l-3.9,6.2c-0.2-0.1-0.5-0.1-0.7-0.1c-1.7,0-3,1.3-3,3s1.3,3,3,3c1.3,0,2.4-0.8,2.8-2h8.4
		c0.4,1.2,1.5,2,2.8,2c1.7,0,3-1.3,3-3S754.2,723.7,752.6,723.7L752.6,723.7z M740.9,724.9l4-6.3c0.2,0,0.4,0.1,0.7,0.1
		c0.3,0,0.5,0,0.8-0.1l3.9,6.3c-0.2,0.3-0.4,0.5-0.5,0.9h-8.4C741.3,725.4,741.1,725.1,740.9,724.9L740.9,724.9z M745.6,714.7
		c0.6,0,1,0.4,1,1s-0.4,1-1,1s-1-0.4-1-1S745,714.7,745.6,714.7z M738.6,727.7c-0.6,0-1-0.4-1-1s0.4-1,1-1s1,0.4,1,1
		S739.1,727.7,738.6,727.7z M752.6,727.7c-0.6,0-1-0.4-1-1s0.4-1,1-1s1,0.4,1,1S753.1,727.7,752.6,727.7z"/>
	<line class="st13" x1="788" y1="688.5" x2="788" y2="659.3"/>
	<polygon class="st24" points="788,692.4 792.1,686.9 788,688.3 783.9,686.9 	"/>
	<line class="st13" x1="576.7" y1="655.1" x2="576.7" y2="623.7"/>
	<polygon class="st24" points="576.7,659.3 580.8,653.4 576.7,654.9 572.6,653.4 	"/>
	<rect x="67.5" y="694.6" class="st6" width="114" height="48"/>
	<rect x="67.5" y="694.6" class="st7" width="48" height="48"/>
	<path class="st0" d="M91.5,711.1c1.7,0,3.1,1.4,3.1,3.1s-1.4,3.1-3.1,3.1s-3.1-1.4-3.1-3.1C88.4,712.5,89.8,711.1,91.5,711.1
		 M91.5,709.8c-2.4,0-4.4,2-4.4,4.4s2,4.4,4.4,4.4s4.4-2,4.4-4.4S93.9,709.8,91.5,709.8z"/>
	<path class="st0" d="M97.8,727.3h-1.2v-3.1c0-1.7-1.4-3.1-3.1-3.1h-3.8c-1.7,0-3.1,1.4-3.1,3.1v3.1h-1.2v-3.1c0-2.4,2-4.4,4.4-4.4
		h3.8c2.4,0,4.4,2,4.4,4.4V727.3z"/>
	<rect id="_Transparent_Rectangle_-2" x="81.5" y="708.6" class="st8" width="20" height="20"/>
	<text transform="matrix(1 0 0 1 133.2596 721.3283)" class="st17 st18 st16">User</text>
	<line class="st13" x1="989.9" y1="655.1" x2="989.9" y2="623.6"/>
	<polygon class="st24" points="989.9,659.2 994,653.4 989.9,654.8 985.8,653.4 	"/>
	<line class="st13" x1="789.2" y1="777" x2="789.2" y2="745.6"/>
	<polygon class="st24" points="789.2,781.2 793.3,775.3 789.2,776.7 785.1,775.3 	"/>
	<g>
		<text transform="matrix(1 0 0 1 458.3135 105.5363)" class="st7 st19 st25">1</text>
	</g>
	<rect x="631.6" y="80.3" class="st20" width="157.3" height="48"/>
	<rect x="631.6" y="80.3" class="st21" width="48" height="48"/>
	<path class="st0" d="M670.7,96.9c-0.4-0.4-1-0.4-1.4,0l-5.7,5.7l-4,0.9c-0.9,0.2-1.6,1-1.6,2v4.2h-4.6l1.6-4.8v-2.2
		c0-1.1,0.9-2,2-2h4c0.6,0,1-0.4,1-1s-0.4-1-1-1h-4c-2.2,0-4,1.8-4,4v1.8l-1.7,5.2H649v2h11v-6.2l3.7-0.8c0.5,0,0.9-0.2,1.3-0.6
		l5.7-5.7C671.1,98,671.1,97.3,670.7,96.9L670.7,96.9z"/>
	<g>
		<text transform="matrix(1 0 0 1 695.6277 98.6458)" class="st22 st18 st16">P</text>
		<text transform="matrix(1 0 0 1 704.4617 98.6458)" class="st22 st18 st16">r</text>
		<text transform="matrix(1 0 0 1 709.8938 98.6458)" class="st22 st18 st16">o</text>
		<text transform="matrix(1 0 0 1 717.6633 98.6458)" class="st22 st18 st16">visioning</text>
	</g>
	<line class="st13" x1="707.9" y1="139.9" x2="707.9" y2="128"/>
	<polygon class="st7" points="707.9,142.8 712,138.7 707.9,139.6 703.8,138.7 	"/>
	<g>
		<text transform="matrix(1 0 0 1 360.8953 317.9739)" class="st7 st19 st25">2</text>
	</g>
	<g>
		<text transform="matrix(1 0 0 1 618.7515 317.9742)" class="st7 st19 st25">3</text>
	</g>
	<line class="st13" x1="584.5" y1="374.2" x2="584.5" y2="345.9"/>
	<polygon class="st7" points="584.5,381.2 588.6,371.3 584.5,373.6 580.4,371.3 	"/>
	<line class="st13" x1="584.5" y1="466.9" x2="584.5" y2="438.6"/>
	<polygon class="st7" points="584.5,473.9 588.6,464 584.5,466.3 580.4,464 	"/>
	<line class="st13" x1="587" y1="555.1" x2="587" y2="538.1"/>
	<polygon class="st7" points="587,559.3 591.1,553.4 587,554.7 582.9,553.4 	"/>
	<line class="st13" x1="975.4" y1="374.4" x2="975.4" y2="346.1"/>
	<polygon class="st7" points="975.4,381.4 979.5,371.5 975.4,373.8 971.3,371.5 	"/>
	<line class="st13" x1="975.4" y1="467.1" x2="975.4" y2="438.8"/>
	<polygon class="st7" points="975.4,474.1 979.5,464.2 975.4,466.5 971.3,464.2 	"/>
	<line class="st13" x1="977.9" y1="555.3" x2="977.9" y2="538.3"/>
	<polygon class="st7" points="977.9,559.5 982,553.5 977.9,554.9 973.8,553.5 	"/>
	<g>
		<text transform="matrix(1 0 0 1 993.9843 317.9739)" class="st7 st19 st25">4</text>
	</g>
	<g>
		<text transform="matrix(1 0 0 1 682.8632 482.3205)" class="st7 st19 st25">5</text>
	</g>
	<g>
		<text transform="matrix(1 0 0 1 1088.4799 482.32)" class="st7 st19 st25">6</text>
	</g>
	<g>
		<text transform="matrix(1 0 0 1 436.5582 708.5618)" class="st7 st19 st25">7</text>
	</g>
	<line class="st13" x1="985.4" y1="660.1" x2="580.4" y2="660.1"/>
</g>
</svg>
