<?xml version="1.0" encoding="utf-8"?>
<!-- Generator: Adobe Illustrator 27.0.1, SVG Export Plug-In . SVG Version: 6.00 Build 0)  -->
<svg version="1.1" id="Text01" xmlns="http://www.w3.org/2000/svg" xmlns:xlink="http://www.w3.org/1999/xlink" x="0px" y="0px"
	 viewBox="0 0 1313.1 800" style="enable-background:new 0 0 1313.1 800;" xml:space="preserve">
<style type="text/css">
	.st0{fill:#FFFFFF;}
	.st1{fill:none;stroke:#6E6F72;stroke-miterlimit:10;}
	.st2{fill:none;stroke:#6E6F72;stroke-miterlimit:10;stroke-dasharray:0,0,8.7518,8.7518;}
	.st3{fill:none;stroke:#6E6F72;stroke-miterlimit:10;stroke-dasharray:0,0,9.4358,9.4358;}
	.st4{fill:#EEF5FB;stroke:#4267B1;stroke-miterlimit:10;}
	.st5{fill:#4267B1;}
	.st6{fill:none;}
	.st7{fill:#F4F4F4;stroke:#FFFFFF;stroke-miterlimit:10;}
	.st8{fill:#FFFFFF;stroke:#FFFFFF;stroke-miterlimit:10;}
	.st9{fill:#FFFFFF;stroke:#1C75BC;stroke-miterlimit:10;}
	.st10{fill:#F4F4F4;}
	.st11{fill:none;stroke:#2073BA;stroke-miterlimit:10;}
	.st12{enable-background:new    ;}
	.st13{fill:#010101;}
	.st14{font-family:'IBMPlexSans';}
	.st15{font-size:14px;}
	.st16{fill:#2A3C90;}
	.st17{fill:#020202;}
	.st18{font-size:12px;}
	.st19{fill:none;stroke:#2073BA;stroke-miterlimit:10;stroke-dasharray:0,0,9.1765,9.1765;}
	.st20{fill:none;stroke:#2073BA;stroke-miterlimit:10;stroke-dasharray:0,0,9.4918,9.4918;}
	.st21{font-family:'MyriadPro-Regular';}
	.st22{font-size:18px;}
	.st23{fill:none;stroke:#4267B1;stroke-miterlimit:10;}
	.st24{fill:#EEF5FB;stroke:#4468B1;stroke-miterlimit:10;}
	.st25{fill:#4468B1;}
	.st26{fill:none;stroke:#2374BB;stroke-miterlimit:10;}
	.st27{fill:#2374BB;}
	.st28{fill:#2073BA;}
	.st29{opacity:0;fill:#010101;}
</style>
<rect x="643.2" y="96.2" class="st0" width="487.9" height="456.5"/>
<polyline class="st1" points="1131.1,540.5 1131.1,552.6 1123.8,552.6 "/>
<line class="st2" x1="1109.5" y1="552.6" x2="657.8" y2="552.6"/>
<polyline class="st1" points="650.6,552.6 643.2,552.6 643.2,540.5 "/>
<line class="st3" x1="643.2" y1="514.9" x2="643.2" y2="121"/>
<polyline class="st1" points="643.2,108.3 643.2,96.2 650.6,96.2 "/>
<line class="st2" x1="665" y1="96.2" x2="1116.7" y2="96.2"/>
<polyline class="st1" points="1123.8,96.2 1131.1,96.2 1131.1,108.3 "/>
<line class="st3" x1="1131.1" y1="133.6" x2="1131.1" y2="527.6"/>
<rect x="643.2" y="96.2" class="st0" width="487.9" height="456.5"/>
<rect x="643.2" y="96.2" class="st0" width="487.9" height="456.5"/>
<rect x="643.2" y="96.2" class="st1" width="487.9" height="456.5"/>
<rect x="643.2" y="96.2" class="st0" width="487.9" height="456.5"/>
<polyline class="st1" points="1131.1,540.5 1131.1,552.6 1123.8,552.6 "/>
<line class="st2" x1="1109.5" y1="552.6" x2="657.8" y2="552.6"/>
<polyline class="st1" points="650.6,552.6 643.2,552.6 643.2,540.5 "/>
<line class="st3" x1="643.2" y1="514.9" x2="643.2" y2="121"/>
<polyline class="st1" points="643.2,108.3 643.2,96.2 650.6,96.2 "/>
<line class="st2" x1="665" y1="96.2" x2="1116.7" y2="96.2"/>
<polyline class="st1" points="1123.8,96.2 1131.1,96.2 1131.1,108.3 "/>
<line class="st3" x1="1131.1" y1="133.6" x2="1131.1" y2="527.6"/>
<rect x="669.1" y="240.8" class="st0" width="462" height="154.2"/>
<polyline class="st1" points="1131.1,390.9 1131.1,395 1124.1,395 "/>
<line class="st2" x1="1110.6" y1="395" x2="682.9" y2="395"/>
<polyline class="st1" points="676.1,395 669.1,395 669.1,390.9 "/>
<line class="st3" x1="669.1" y1="382.2" x2="669.1" y2="249.1"/>
<polyline class="st1" points="669.1,244.9 669.1,240.8 676.1,240.8 "/>
<line class="st2" x1="689.7" y1="240.8" x2="1117.5" y2="240.8"/>
<polyline class="st1" points="1124.1,240.8 1131.1,240.8 1131.1,244.9 "/>
<line class="st3" x1="1131.1" y1="253.4" x2="1131.1" y2="386.5"/>
<rect x="669.1" y="240.8" class="st0" width="462" height="154.2"/>
<rect x="669.1" y="240.8" class="st0" width="462" height="154.2"/>
<rect x="669.1" y="240.8" class="st1" width="462" height="154.2"/>
<rect x="669.1" y="240.8" class="st0" width="462" height="154.2"/>
<polyline class="st1" points="1131.1,390.9 1131.1,395 1124.1,395 "/>
<line class="st2" x1="1110.6" y1="395" x2="682.9" y2="395"/>
<polyline class="st1" points="676.1,395 669.1,395 669.1,390.9 "/>
<line class="st3" x1="669.1" y1="382.2" x2="669.1" y2="249.1"/>
<polyline class="st1" points="669.1,244.9 669.1,240.8 676.1,240.8 "/>
<line class="st2" x1="689.7" y1="240.8" x2="1117.5" y2="240.8"/>
<polyline class="st1" points="1124.1,240.8 1131.1,240.8 1131.1,244.9 "/>
<line class="st3" x1="1131.1" y1="253.4" x2="1131.1" y2="386.5"/>
<rect x="52.9" y="326.5" class="st4" width="114" height="48"/>
<rect x="52.9" y="326.5" class="st5" width="48" height="48"/>
<path class="st0" d="M76.9,343c1.7,0,3.1,1.4,3.1,3.1s-1.4,3.1-3.1,3.1s-3.1-1.4-3.1-3.1C73.7,344.4,75.1,343,76.9,343 M76.9,341.8
	c-2.4,0-4.4,2-4.4,4.4s2,4.4,4.4,4.4s4.4-2,4.4-4.4S79.3,341.8,76.9,341.8z"/>
<path class="st0" d="M83.1,359.3h-1.2v-3.1c0-1.7-1.4-3.1-3.1-3.1H75c-1.7,0-3.1,1.4-3.1,3.1v3.1h-1.2v-3.1c0-2.4,2-4.4,4.4-4.4h3.8
	c2.4,0,4.4,2,4.4,4.4V359.3z"/>
<rect id="_Transparent_Rectangle_" x="66.9" y="340.5" class="st6" width="20" height="20"/>
<rect x="445.5" y="121.6" class="st4" width="172.2" height="48"/>
<rect x="445.5" y="121.6" class="st5" width="48" height="48"/>
<rect x="690.4" y="293.3" class="st4" width="122.5" height="48"/>
<rect x="690.4" y="293.3" class="st5" width="48" height="48"/>
<path class="st7" d="M723.2,318.7V316h-2.6c-0.2-0.8-0.5-1.6-0.9-2.3l1.9-2l-1.8-1.9l-1.9,2c-0.7-0.5-1.4-0.8-2.2-1V308h-2.5v2.8
	c-0.8,0.2-1.5,0.5-2.2,1l-1.9-2l-1.8,1.9l1.9,2c-0.4,0.7-0.8,1.5-0.9,2.3h-2.6v2.6h2.6c0.2,0.8,0.5,1.6,0.9,2.3l-1.9,2l1.8,1.9
	l1.9-2c0.7,0.5,1.4,0.8,2.2,1v2.8h2.5v-2.8c0.8-0.2,1.5-0.5,2.2-1l1.9,2l1.8-1.9l-1.9-2c0.4-0.7,0.8-1.5,0.9-2.3L723.2,318.7
	L723.2,318.7z M714.4,321.3c-2.1,0-3.8-1.8-3.8-3.9c0-2.2,1.7-3.9,3.8-3.9s3.8,1.8,3.8,3.9C718.2,319.5,716.5,321.3,714.4,321.3z"/>
<rect x="845" y="293.3" class="st4" width="122.5" height="48"/>
<rect x="845" y="293.3" class="st5" width="48" height="48"/>
<rect x="999.5" y="293.4" class="st4" width="122.5" height="48"/>
<rect x="999.5" y="293.4" class="st5" width="48" height="48"/>
<path class="st8" d="M1039.8,314.6c0-0.4-0.2-0.8-0.6-1.1l-13.7-8.7c-0.4-0.2-0.8-0.2-1.2,0l-13.7,8.7c-0.3,0.2-0.6,0.6-0.6,1.1l0,0
	c0,0.4,0.2,0.8,0.6,1.1l13.7,8.7c0.4,0.2,0.8,0.2,1.2,0l13.7-8.7C1039.6,315.5,1039.8,315.1,1039.8,314.6L1039.8,314.6z M1025,321.9
	l-11.4-7.2l11.4-7.2l11.4,7.2L1025,321.9z"/>
<rect x="851.5" y="414.4" class="st4" width="122.5" height="48"/>
<rect x="851.5" y="414.4" class="st5" width="48" height="48"/>
<rect x="1008.6" y="415.6" class="st4" width="122.5" height="48"/>
<rect x="1008.6" y="415.6" class="st5" width="48" height="48"/>
<path class="st9" d="M892.9,443.3v6.7c0,1-7.9,1.7-17.6,1.6c-9.7-0.1-17.5-0.9-17.5-1.9V443c0,1,7.8,1.8,17.5,1.9
	C885.1,445,892.9,444.2,892.9,443.3z"/>
<path class="st9" d="M893.1,427.1c0,1-7.9,1.7-17.6,1.6c-9.7-0.1-17.5-0.9-17.5-1.9s7.9-1.7,17.5-1.6
	C885.2,425.3,893.1,426.1,893.1,427.1z"/>
<path class="st9" d="M893,435.6v6.7c0,1-7.9,1.7-17.6,1.6c-9.7-0.1-17.5-0.9-17.5-1.9v-6.7c0,1,7.8,1.8,17.5,1.9
	C885.1,437.3,893,436.6,893,435.6z"/>
<path class="st9" d="M893,428v6.7c0,1-7.9,1.7-17.6,1.6c-9.7-0.1-17.5-0.9-17.5-1.9v-6.7c0,1,7.8,1.8,17.5,1.9
	C885.2,429.7,893,429,893,428z"/>
<circle class="st10" cx="824.4" cy="534.8" r="1"/>
<circle class="st10" cx="824.4" cy="526.8" r="1"/>
<circle class="st10" cx="824.4" cy="518.8" r="1"/>
<line class="st11" x1="997.4" y1="439.6" x2="974.3" y2="439.6"/>
<polygon class="st5" points="1004.5,439.6 994.6,435.5 996.9,439.6 994.6,443.7 "/>
<line class="st11" x1="810.8" y1="431.8" x2="810.8" y2="393.9"/>
<polygon class="st5" points="810.8,440.7 814.9,430.8 810.8,433.1 806.7,430.8 "/>
<path class="st10" d="M879.7,304.2c-2.2,0-4,1.8-4,4c0,0.7,0.2,1.4,0.6,2l-3,3h-8.6v10h10v-8.6l3-3c0.6,0.4,1.3,0.6,2,0.6
	c2.2,0,4-1.8,4-4C883.7,306,881.9,304.2,879.7,304.2L879.7,304.2z M872.7,321.2h-6v-6h6V321.2z M879.7,310.2c-1.1,0-2-0.9-2-2
	c0-1.1,0.9-2,2-2s2,0.9,2,2C881.7,309.3,880.8,310.2,879.7,310.2z"/>
<circle class="st10" cx="1032.6" cy="436.8" r="2"/>
<path class="st10" d="M1039.9,436.4c-1.3-2.8-4.2-4.6-7.3-4.6s-6,1.8-7.3,4.6l-0.2,0.4l0.2,0.4c1.3,2.8,4.2,4.6,7.3,4.6
	s6-1.8,7.3-4.6l0.2-0.4L1039.9,436.4z M1032.6,440.9c-2.2,0-4-1.8-4-4s1.8-4,4-4s4,1.8,4,4S1034.8,440.9,1032.6,440.9z"/>
<text transform="matrix(1 0 0 1 509.4602 139.929)" class="st12"><tspan x="0" y="0" class="st13 st14 st15">Create instance</tspan><tspan x="0" y="16.8" class="st13 st14 st15"> (lite plan)</tspan></text>
<text transform="matrix(1 0 0 1 650.5812 114.9318)" class="st16 st14 st15">IBM </text>
<text transform="matrix(1 0 0 1 680.7365 114.9318)" class="st16 st14 st15">w</text>
<text transform="matrix(1 0 0 1 692.3146 114.9318)" class="st16 st14 st15">a</text>
<text transform="matrix(1 0 0 1 700.1963 114.9318)" class="st16 st14 st15">tsonx</text>
<text transform="matrix(1 0 0 1 736.694 114.9318)" class="st16 st14 st15">.</text>
<text transform="matrix(1 0 0 1 740.8243 114.9318)" class="st16 st14 st15">d</text>
<text transform="matrix(1 0 0 1 749.3361 114.9318)" class="st16 st14 st15">a</text>
<text transform="matrix(1 0 0 1 757.2179 114.9318)" class="st16 st14 st15">ta</text>
<text transform="matrix(1 0 0 1 754.4309 311.6287)" class="st13 st14 st15">Presto </text>
<text transform="matrix(1 0 0 1 754.4309 329.6287)" class="st13 st14 st15">Milvus</text>
<text transform="matrix(1 0 0 1 908.9773 311.6287)" class="st13 st14 st15">Catalog</text>
<text transform="matrix(1 0 0 1 1063.5239 311.7285)" class="st13 st14 st15">Bucket</text>
<text transform="matrix(1 0 0 1 689.5907 260.1233)" class="st13 st14 st15">IBM watsonx.data console</text>
<text transform="matrix(1 0 0 1 915.4885 432.7783)" class="st13 st14 st15">Querying</text>
<text transform="matrix(1 0 0 1 1072.5815 433.983)" class="st13 st14 st15">Display</text>
<text transform="matrix(1 0 0 1 1072.5815 451.983)" class="st13 st14 st15">Result</text>
<rect x="695.5" y="607.9" class="st4" width="139.5" height="48"/>
<rect x="695.5" y="607.9" class="st5" width="48" height="48"/>
<circle class="st10" cx="719.5" cy="629.1" r="2"/>
<path class="st10" d="M726.8,628.6c-1.3-2.8-4.2-4.6-7.3-4.6s-6,1.8-7.3,4.6l-0.2,0.4l0.2,0.4c1.3,2.8,4.2,4.6,7.3,4.6
	s6-1.8,7.3-4.6l0.2-0.4L726.8,628.6z M719.5,633.1c-2.2,0-4-1.8-4-4s1.8-4,4-4s4,1.8,4,4S721.7,633.1,719.5,633.1z"/>
<text transform="matrix(1 0 0 1 759.5056 626.2286)" class="st13 st14 st15">Monitored </text>
<text transform="matrix(1 0 0 1 759.5056 644.2286)" class="st13 st14 st15">Usage</text>
<text transform="matrix(1 0 0 1 118.6015 353.294)" class="st13 st14 st15">User</text>
<rect x="73.3" y="433.7" class="st6" width="90.6" height="21.8"/>
<g>
	<text transform="matrix(1.0752 0 0 1 74.4248 438.0986)" class="st17 st14 st18">N</text>
	<text transform="matrix(1.0752 0 0 1 83.5464 438.0986)" class="st17 st14 st18">e</text>
	<text transform="matrix(1.0752 0 0 1 90.5654 438.0986)" class="st17 st14 st18">w</text>
	<text transform="matrix(1.0752 0 0 1 74.4248 452.498)" class="st17 st14 st18">User</text>
</g>
<rect x="73.3" y="231.7" class="st6" width="90.6" height="21.8"/>
<g>
	<text transform="matrix(1.0752 0 0 1 73.3018 247.084)" class="st17 st14 st18">Exi</text>
	<text transform="matrix(1.0752 0 0 1 90.5908 247.084)" class="st17 st14 st18">s</text>
	<text transform="matrix(1.0752 0 0 1 96.7842 247.084)" class="st17 st14 st18">ting</text>
	<text transform="matrix(1.0752 0 0 1 73.3018 261.4839)" class="st17 st14 st18">User</text>
</g>
<line class="st11" x1="148.3" y1="381.6" x2="148.3" y2="382.4"/>
<line class="st19" x1="148.3" y1="384.1" x2="148.3" y2="442.2"/>
<line class="st11" x1="148.3" y1="443.1" x2="148.3" y2="443.9"/>
<line class="st11" x1="189.4" y1="232.6" x2="187.6" y2="232.6"/>
<line class="st20" x1="183.7" y1="232.8" x2="154.7" y2="233.8"/>
<line class="st11" x1="152.8" y1="233.8" x2="150.9" y2="233.8"/>
<polygon class="st5" points="192.2,232.5 188.2,228.7 189.1,232.6 188.2,236.5 "/>
<line class="st11" x1="187" y1="444.6" x2="185.2" y2="444.6"/>
<line class="st20" x1="181.3" y1="444.8" x2="152.3" y2="445.7"/>
<line class="st11" x1="150.4" y1="445.7" x2="148.5" y2="445.8"/>
<polygon class="st5" points="189.8,444.5 185.8,440.7 186.7,444.6 185.8,448.5 "/>
<line class="st11" x1="150.9" y1="317.5" x2="150.9" y2="316.4"/>
<line class="st19" x1="150.9" y1="314" x2="150.9" y2="234.9"/>
<line class="st11" x1="150.9" y1="233.7" x2="150.9" y2="232.6"/>
<rect x="192.1" y="203.3" class="st4" width="114" height="48"/>
<rect x="192.1" y="203.3" class="st5" width="48" height="48"/>
<path class="st0" d="M216.1,219.8c1.7,0,3.1,1.4,3.1,3.1s-1.4,3.1-3.1,3.1s-3.1-1.4-3.1-3.1C212.9,221.2,214.3,219.8,216.1,219.8
	 M216.1,218.6c-2.4,0-4.4,2-4.4,4.4s2,4.4,4.4,4.4s4.4-2,4.4-4.4S218.5,218.6,216.1,218.6z"/>
<path class="st0" d="M222.3,236.1h-1.2v-3.1c0-1.7-1.4-3.1-3.1-3.1h-3.8c-1.7,0-3.1,1.4-3.1,3.1v3.1h-1.2v-3.1c0-2.4,2-4.4,4.4-4.4
	h3.8c2.4,0,4.4,2,4.4,4.4V236.1z"/>
<rect id="_Transparent_Rectangle_-2" x="206.1" y="217.3" class="st6" width="20" height="20"/>
<text transform="matrix(1 0 0 1 249.3295 230.0727)" class="st13 st14 st15">Log in</text>
<rect x="190.1" y="420.8" class="st4" width="114" height="48"/>
<rect x="190.1" y="420.8" class="st5" width="48" height="48"/>
<path class="st0" d="M214.1,437.3c1.7,0,3.1,1.4,3.1,3.1s-1.4,3.1-3.1,3.1s-3.1-1.4-3.1-3.1C211,438.7,212.4,437.3,214.1,437.3
	 M214.1,436c-2.4,0-4.4,2-4.4,4.4s2,4.4,4.4,4.4s4.4-2,4.4-4.4S216.5,436,214.1,436z"/>
<path class="st0" d="M220.3,453.5h-1.2v-3.1c0-1.7-1.4-3.1-3.1-3.1h-3.8c-1.7,0-3.1,1.4-3.1,3.1v3.1h-1.2v-3.1c0-2.4,2-4.4,4.4-4.4
	h3.8c2.4,0,4.4,2,4.4,4.4V453.5z"/>
<rect id="_Transparent_Rectangle_-3" x="204.1" y="434.8" class="st6" width="20" height="20"/>
<text transform="matrix(1 0 0 1 247.0658 442.1067)" class="st13 st14 st15">Account </text>
<text transform="matrix(1 0 0 1 247.0658 460.1067)" class="st13 st14 st15">Creation</text>
<path class="st8" d="M467,154.8c-0.8,0-1.5-0.7-1.5-1.5V143c0-0.8,0.7-1.5,1.5-1.5c0.3,0,0.5,0.1,0.7,0.2l0,0l9.5,5.2
	c0.7,0.4,1,1.3,0.6,2c-0.1,0.3-0.3,0.5-0.6,0.6l-9.5,5.2C467.5,154.8,467.2,154.8,467,154.8z M467.5,143.9v8.6l7.9-4.3L467.5,143.9z
	 M466.7,143.4"/>
<rect x="255.7" y="134.8" class="st4" width="151.2" height="48"/>
<rect x="292.1" y="151.4" class="st6" width="75.6" height="48"/>
<text transform="matrix(1 0 0 1 292.1372 164.2233)" class="st21 st22">Associate</text>
<circle class="st10" cx="283.8" cy="145.6" r="2"/>
<path class="st10" d="M291.1,145.1c-1.3-2.8-4.2-4.6-7.3-4.6s-6,1.8-7.3,4.6l-0.2,0.4l0.2,0.4c1.3,2.8,4.2,4.6,7.3,4.6
	s6-1.8,7.3-4.6l0.2-0.4L291.1,145.1z M283.8,149.6c-2.2,0-4-1.8-4-4s1.8-4,4-4s4,1.8,4,4S286,149.6,283.8,149.6z"/>
<line class="st11" x1="436" y1="151.2" x2="412.9" y2="151.2"/>
<polygon class="st5" points="443.1,151.2 433.2,147.1 435.5,151.2 433.2,155.3 "/>
<line class="st11" x1="643.2" y1="149.3" x2="620.1" y2="149.3"/>
<polygon class="st5" points="650.3,149.3 640.4,145.2 642.7,149.3 640.4,153.4 "/>
<line class="st11" x1="249.8" y1="154.2" x2="226.7" y2="154.2"/>
<polygon class="st5" points="256.9,154.2 247,150.1 249.3,154.2 247,158.3 "/>
<line class="st23" x1="226.7" y1="194.7" x2="226.7" y2="154.2"/>
<rect x="701.9" y="127.4" class="st24" width="157.3" height="48"/>
<rect x="701.9" y="127.4" class="st25" width="48" height="48"/>
<path class="st0" d="M741,144c-0.4-0.4-1-0.4-1.4,0l-5.7,5.7l-4,0.9c-0.9,0.2-1.6,1-1.6,2v4.2h-4.6l1.6-4.8v-2.2c0-1.1,0.9-2,2-2h4
	c0.6,0,1-0.4,1-1s-0.4-1-1-1h-4c-2.2,0-4,1.8-4,4v1.8l-1.7,5.2h-2.3v2h11v-6.2l3.7-0.8c0.5,0,0.9-0.2,1.3-0.6l5.7-5.7
	C741.4,145.1,741.4,144.4,741,144L741,144L741,144z"/>
<circle class="st0" cx="825.6" cy="87.9" r="1"/>
<line class="st26" x1="784.5" y1="211.9" x2="784.5" y2="195.3"/>
<polygon class="st27" points="784.5,219.4 788.6,209.5 784.5,211.9 780.5,209.5 "/>
<g>
	<text transform="matrix(1 0 0 1 765.8552 145.8027)" class="st17 st14 st15">P</text>
	<text transform="matrix(1 0 0 1 774.6892 145.8027)" class="st17 st14 st15">r</text>
	<text transform="matrix(1 0 0 1 780.1213 145.8027)" class="st17 st14 st15">o</text>
	<text transform="matrix(1 0 0 1 787.8909 145.8027)" class="st17 st14 st15">visioning</text>
</g>
<line class="st6" x1="238.1" y1="420.8" x2="238.2" y2="261.6"/>
<line class="st23" x1="238.1" y1="420.8" x2="238.2" y2="267.7"/>
<path class="st5" d="M238.2,261.6c1.1,2.8,2.8,6.4,4.7,8.6l-4.8-1.7l-4.8,1.7C235.4,268,237.2,264.5,238.2,261.6L238.2,261.6z"/>
<rect x="695.5" y="678.3" class="st4" width="139.5" height="48"/>
<rect x="695.5" y="678.3" class="st5" width="48" height="48"/>
<circle class="st10" cx="719.5" cy="699.5" r="2"/>
<path class="st10" d="M726.8,699c-1.3-2.8-4.2-4.6-7.3-4.6s-6,1.8-7.3,4.6l-0.2,0.4l0.2,0.4c1.3,2.8,4.2,4.6,7.3,4.6s6-1.8,7.3-4.6
	l0.2-0.4L726.8,699z M719.5,703.5c-2.2,0-4-1.8-4-4s1.8-4,4-4s4,1.8,4,4S721.7,703.5,719.5,703.5z"/>
<text transform="matrix(1 0 0 1 759.5056 696.6158)" class="st13 st14 st15">Metered</text>
<text transform="matrix(1 0 0 1 759.5056 714.6158)" class="st13 st14 st15">Usage</text>
<line class="st11" x1="770" y1="606.1" x2="770" y2="603.8"/>
<line class="st20" x1="769.8" y1="599.1" x2="768.8" y2="563.5"/>
<line class="st11" x1="768.8" y1="561.2" x2="768.7" y2="558.9"/>
<polygon class="st28" points="770.1,609.6 774.1,604.6 770,605.8 766,604.7 "/>
<line class="st11" x1="838.2" y1="438.9" x2="815.1" y2="438.9"/>
<polygon class="st5" points="848.1,438.9 838.2,434.8 840.5,438.9 838.2,443 "/>
<a xlink:href="https://test.cloud.ibm.com/docs-internal/writing?topic=writing-css-test-for-markdown-changes&amp;interface=cli#simple-table-test" target="_blank" >
	<rect x="247" y="127.4" class="st29" width="165.9" height="63.6"/>
</a>
</svg>
